<?xml version="1.0" encoding="UTF-8"?>
<svg xmlns="http://www.w3.org/2000/svg" xmlns:xlink="http://www.w3.org/1999/xlink" width="975pt" height="975pt" viewBox="0 0 975 975" version="1.1">
<defs>
<clipPath id="clip1">
  <path d="M 0 0 L 975 0 L 975 975 L 0 975 Z M 0 0 "/>
</clipPath>
</defs>
<g id="surface0">
<g clip-path="url(#clip1)" clip-rule="nonzero">
<path style=" stroke:none;fill-rule:evenodd;fill:rgb(100%,100%,100%);fill-opacity:1;" d="M 0 0 L 975 0 L 975 975 L 0 975 Z M 0 0 "/>
<path style=" stroke:none;fill-rule:nonzero;fill:rgb(0%,0%,0%);fill-opacity:1;" d="M 266.878906 59.269531 L 153.21875 618.113281 L 241.914063 618.113281 L 241.914063 681.609375 L 291.839844 681.609375 L 291.839844 618.113281 L 380.535156 618.113281 Z M 266.878906 59.269531 "/>
<path style=" stroke:none;fill-rule:nonzero;fill:rgb(0%,0%,0%);fill-opacity:1;" d="M 448.636719 2.753906 L 334.976563 561.597656 L 423.675781 561.597656 L 423.675781 625.332031 L 473.597656 625.332031 L 473.597656 561.597656 L 562.296875 561.597656 Z M 448.636719 2.753906 "/>
<path style=" stroke:none;fill-rule:nonzero;fill:rgb(0%,0%,0%);fill-opacity:1;" d="M 788.644531 972.128906 L 242.886719 972.128906 C 242.886719 972.128906 185.453125 867.191406 286.75 765.890625 C 388.050781 664.59375 590.40625 635.753906 630.636719 596.25 C 670.867188 556.75 609.308594 499.316406 609.308594 499.316406 L 676.921875 499.316406 C 676.921875 499.316406 795.671875 559.65625 761.5 624.121094 C 719.820313 703.125 667.230469 715.242188 667.230469 817.996094 C 667.230469 890.699219 788.644531 972.128906 788.644531 972.128906 Z M 788.644531 972.128906 "/>
</g>
</g>
</svg>
