<?xml version="1.0" encoding="UTF-8"?>
<svg xmlns="http://www.w3.org/2000/svg" xmlns:xlink="http://www.w3.org/1999/xlink" width="1125pt" height="1125pt" viewBox="0 0 1125 1125" version="1.1">
<defs>
<clipPath id="clip1">
  <path d="M 0 0 L 1125 0 L 1125 1125 L 0 1125 Z M 0 0 "/>
</clipPath>
</defs>
<g id="surface0">
<g clip-path="url(#clip1)" clip-rule="nonzero">
<path style=" stroke:none;fill-rule:evenodd;fill:rgb(100%,100%,100%);fill-opacity:1;" d="M 0 0 L 1125 0 L 1125 1125 L 0 1125 Z M 0 0 "/>
<path style=" stroke:none;fill-rule:nonzero;fill:rgb(0%,0%,0%);fill-opacity:1;" d="M 655.199219 382.558594 C 655.199219 382.558594 800.300781 126.964844 954.375 182.152344 C 979.453125 260.398438 916.972656 370.941406 655.199219 382.558594 Z M 655.199219 382.558594 "/>
<path style=" stroke:none;fill-rule:nonzero;fill:rgb(0%,0%,0%);fill-opacity:1;" d="M 645.722656 365.664063 C 645.722656 365.664063 739.332031 73.921875 619.390625 32.394531 C 555.296875 35.191406 468.699219 189.519531 645.722656 365.664063 Z M 645.722656 365.664063 "/>
<path style=" stroke:none;fill-rule:nonzero;fill:rgb(0%,0%,0%);fill-opacity:1;" d="M 363.128906 569.238281 C 363.128906 569.238281 77.238281 637.429688 12.523438 487.113281 C 52.644531 415.40625 176.101563 385.710938 363.128906 569.238281 Z M 363.128906 569.238281 "/>
<path style=" stroke:none;fill-rule:nonzero;fill:rgb(0%,0%,0%);fill-opacity:1;" d="M 357.234375 587.691406 C 357.234375 587.691406 80.027344 718.199219 131.453125 834.238281 C 177.214844 879.207031 349.140625 837.285156 357.234375 587.691406 Z M 357.234375 587.691406 "/>
<path style=" stroke:none;fill-rule:nonzero;fill:rgb(0%,0%,0%);fill-opacity:1;" d="M 736.40625 714.496094 C 736.40625 714.496094 880.757813 970.511719 754.101563 1074.15625 C 674.113281 1055.351563 611.539063 944.859375 736.40625 714.496094 Z M 736.40625 714.496094 "/>
<path style=" stroke:none;fill-rule:nonzero;fill:rgb(0%,0%,0%);fill-opacity:1;" d="M 755.765625 715.074219 C 755.765625 715.074219 957.628906 945.570313 1054.996094 864.148438 C 1085.609375 807.769531 997.925781 654.058594 755.765625 715.074219 Z M 755.765625 715.074219 "/>
<path style=" stroke:none;fill-rule:evenodd;fill:rgb(0%,0%,0%);fill-opacity:1;" d="M 609.695313 434.140625 C 609.695313 509.253906 546.671875 570.136719 468.933594 570.136719 C 391.195313 570.136719 328.179688 509.253906 328.179688 434.140625 C 328.179688 359.035156 391.195313 298.152344 468.933594 298.152344 C 546.671875 298.152344 609.695313 359.035156 609.695313 434.140625 Z M 609.695313 434.140625 "/>
<path style=" stroke:none;fill-rule:evenodd;fill:rgb(0%,0%,0%);fill-opacity:1;" d="M 927.679688 544.695313 C 927.679688 621.539063 864.859375 683.832031 787.363281 683.832031 C 709.863281 683.832031 647.039063 621.539063 647.039063 544.695313 C 647.039063 467.839844 709.863281 405.546875 787.363281 405.546875 C 864.859375 405.546875 927.679688 467.839844 927.679688 544.695313 Z M 927.679688 544.695313 "/>
<path style=" stroke:none;fill-rule:evenodd;fill:rgb(0%,0%,0%);fill-opacity:1;" d="M 676.972656 714.933594 C 676.972656 791.433594 614.527344 853.453125 537.5 853.453125 C 460.476563 853.453125 398.03125 791.433594 398.03125 714.933594 C 398.03125 638.441406 460.476563 576.425781 537.5 576.425781 C 614.527344 576.425781 676.972656 638.441406 676.972656 714.933594 Z M 676.972656 714.933594 "/>
<path style=" stroke:none;fill-rule:nonzero;fill:rgb(100%,100%,100%);fill-opacity:1;" d="M 496.761719 527.222656 C 479.09375 529.367188 460.785156 526.847656 444.789063 519.917969 C 443.957031 520.292969 443.117188 520.667969 442.285156 521.042969 C 442.179688 521.132813 442.066406 521.222656 441.960938 521.320313 C 436.320313 524.027344 431.304688 527.222656 426.910156 531.527344 C 426.277344 532.269531 425.542969 532.839844 424.921875 533.582031 C 424.816406 533.679688 424.816406 533.859375 424.710938 533.957031 C 424.5 534.144531 424.289063 534.332031 424.082031 534.527344 C 423.457031 535.269531 422.925781 536.019531 422.304688 536.769531 C 422.101563 536.957031 421.988281 537.242188 421.882813 537.429688 C 421.785156 537.519531 421.679688 537.609375 421.574219 537.707031 C 421.261719 538.179688 421.050781 538.644531 420.734375 539.109375 C 420.628906 539.207031 420.527344 539.296875 420.421875 539.394531 C 419.6875 540.609375 418.957031 541.734375 418.441406 542.949219 C 416.445313 538.734375 415.089844 534.527344 413.941406 529.839844 C 412.367188 522.910156 411.742188 516.445313 412.164063 509.617188 C 412.269531 508.394531 412.367188 507.082031 412.476563 505.867188 C 412.785156 503.617188 413.003906 501.375 413.625 499.125 C 413.730469 498.660156 413.625 498.097656 413.835938 497.625 C 413.941406 497.445313 414.046875 497.25 414.046875 497.160156 C 410.167969 493.320313 406.199219 490.140625 401.183594 487.417969 C 394.695313 483.960938 388.003906 481.800781 380.785156 480.863281 C 386.851563 477.128906 393.234375 473.753906 400.238281 471.316406 C 400.449219 471.21875 400.554688 471.128906 400.761719 471.039063 C 409.859375 467.84375 419.265625 465.976563 428.886719 465.234375 C 430.988281 461.582031 432.242188 457.832031 433.386719 453.804688 C 433.386719 453.617188 433.386719 453.527344 433.386719 453.339844 C 434.640625 447.902344 434.746094 442.855469 434.019531 437.515625 C 433.914063 437.042969 433.808594 436.675781 433.703125 436.203125 C 433.386719 434.515625 433.1875 432.828125 432.554688 431.238281 C 436.425781 433.394531 439.875 436.105469 443.429688 438.828125 C 445.207031 440.230469 446.785156 441.632813 448.449219 443.222656 C 451.378906 446.035156 453.886719 448.660156 456.503906 451.839844 C 456.707031 452.125 456.921875 452.5 457.125 452.777344 C 457.238281 452.964844 457.441406 452.964844 457.546875 453.152344 C 458.804688 454.929688 459.953125 456.339844 461.207031 458.109375 C 462.046875 459.332031 462.78125 460.546875 463.613281 461.761719 C 463.824219 462.234375 464.136719 462.699219 464.347656 463.171875 C 465.082031 464.386719 465.804688 465.601563 466.546875 466.824219 C 469.15625 467.003906 471.878906 467.003906 474.488281 466.824219 C 474.910156 466.726563 475.433594 466.726563 475.847656 466.628906 C 476.160156 466.628906 476.378906 466.628906 476.6875 466.628906 C 477 466.628906 477.203125 466.449219 477.527344 466.449219 C 486.625 465.511719 494.984375 462.046875 502.199219 457.269531 C 501.160156 462.136719 499.484375 466.921875 497.5 471.59375 C 497.402344 471.78125 497.289063 471.878906 497.183594 472.066406 C 492.683594 482.273438 486 491.632813 477.625 499.589844 C 478.261719 501.9375 478.980469 504.277344 479.925781 506.519531 C 480.039063 506.804688 480.039063 506.992188 480.144531 507.277344 C 481.394531 510.175781 482.753906 512.800781 484.742188 515.507813 C 485.160156 515.882813 485.363281 516.355469 485.6875 516.828125 C 485.785156 516.917969 485.886719 517.015625 486 517.105469 C 487.664063 519.453125 489.660156 521.320313 491.746094 523.382813 C 491.859375 523.472656 492.0625 523.472656 492.164063 523.570313 C 493.628906 524.972656 495.097656 526.089844 496.761719 527.222656 Z M 496.761719 527.222656 L 496.761719 527.222656 Z M 496.761719 527.222656 "/>
<path style=" stroke:none;fill-rule:nonzero;fill:rgb(100%,100%,100%);fill-opacity:1;" d="M 883.671875 636.839844 C 866.003906 638.984375 847.695313 636.464844 831.699219 629.53125 C 830.863281 629.90625 830.023438 630.28125 829.191406 630.65625 C 829.085938 630.746094 828.976563 630.839844 828.871094 630.933594 C 823.230469 633.644531 818.210938 636.839844 813.816406 641.144531 C 813.1875 641.886719 812.453125 642.457031 811.832031 643.199219 C 811.726563 643.296875 811.726563 643.476563 811.621094 643.574219 C 811.410156 643.761719 811.199219 643.949219 810.988281 644.144531 C 810.367188 644.886719 809.835938 645.636719 809.210938 646.386719 C 809.011719 646.574219 808.898438 646.859375 808.792969 647.046875 C 808.695313 647.136719 808.589844 647.226563 808.484375 647.324219 C 808.171875 647.796875 807.960938 648.261719 807.644531 648.726563 C 807.539063 648.824219 807.433594 648.914063 807.332031 649.011719 C 806.59375 650.226563 805.867188 651.351563 805.351563 652.566406 C 803.355469 648.351563 801.996094 644.144531 800.851563 639.457031 C 799.273438 632.527344 798.652344 626.058594 799.074219 619.234375 C 799.175781 618.011719 799.273438 616.699219 799.386719 615.484375 C 799.695313 613.234375 799.914063 610.992188 800.535156 608.742188 C 800.640625 608.277344 800.535156 607.714844 800.746094 607.242188 C 800.851563 607.0625 800.957031 606.867188 800.957031 606.777344 C 797.078125 602.9375 793.109375 599.757813 788.09375 597.035156 C 781.605469 593.578125 774.914063 591.417969 767.691406 590.480469 C 773.761719 586.746094 780.144531 583.371094 787.148438 580.933594 C 787.359375 580.835938 787.460938 580.746094 787.671875 580.65625 C 796.769531 577.460938 806.175781 575.59375 815.796875 574.851563 C 817.898438 571.199219 819.148438 567.449219 820.296875 563.421875 C 820.296875 563.234375 820.296875 563.144531 820.296875 562.957031 C 821.550781 557.519531 821.65625 552.46875 820.925781 547.128906 C 820.824219 546.65625 820.71875 546.289063 820.613281 545.816406 C 820.296875 544.128906 820.09375 542.441406 819.464844 540.851563 C 823.335938 543.011719 826.785156 545.71875 830.339844 548.441406 C 832.117188 549.84375 833.691406 551.246094 835.359375 552.839844 C 838.289063 555.652344 840.796875 558.277344 843.414063 561.457031 C 843.613281 561.742188 843.832031 562.117188 844.035156 562.394531 C 844.148438 562.582031 844.351563 562.582031 844.457031 562.769531 C 845.714844 564.546875 846.863281 565.957031 848.113281 567.726563 C 848.957031 568.949219 849.691406 570.164063 850.523438 571.378906 C 850.734375 571.851563 851.046875 572.316406 851.257813 572.789063 C 851.992188 574.003906 852.710938 575.21875 853.457031 576.441406 C 856.066406 576.621094 858.789063 576.621094 861.398438 576.441406 C 861.816406 576.34375 862.34375 576.34375 862.753906 576.246094 C 863.070313 576.246094 863.289063 576.246094 863.59375 576.246094 C 863.910156 576.246094 864.113281 576.066406 864.433594 576.066406 C 873.53125 575.128906 881.894531 571.664063 889.109375 566.886719 C 888.066406 571.753906 886.394531 576.539063 884.40625 581.210938 C 884.308594 581.398438 884.199219 581.496094 884.09375 581.683594 C 879.59375 591.890625 872.910156 601.25 864.53125 609.207031 C 865.171875 611.554688 865.890625 613.894531 866.835938 616.136719 C 866.949219 616.421875 866.949219 616.609375 867.050781 616.894531 C 868.304688 619.789063 869.664063 622.414063 871.648438 625.121094 C 872.070313 625.496094 872.273438 625.96875 872.59375 626.441406 C 872.691406 626.53125 872.796875 626.628906 872.910156 626.71875 C 874.574219 629.066406 876.570313 630.933594 878.65625 632.996094 C 878.769531 633.089844 878.96875 633.089844 879.074219 633.183594 C 880.539063 634.589844 882.007813 635.707031 883.671875 636.839844 Z M 883.671875 636.839844 L 883.671875 636.839844 Z M 883.671875 636.839844 "/>
<path style=" stroke:none;fill-rule:nonzero;fill:rgb(100%,100%,100%);fill-opacity:1;" d="M 539.898438 790.214844 C 522.226563 792.359375 503.921875 789.839844 487.921875 782.910156 C 487.089844 783.285156 486.25 783.660156 485.417969 784.035156 C 485.3125 784.125 485.199219 784.214844 485.097656 784.3125 C 479.457031 787.019531 474.4375 790.214844 470.042969 794.519531 C 469.414063 795.265625 468.679688 795.832031 468.054688 796.578125 C 467.949219 796.671875 467.949219 796.855469 467.847656 796.953125 C 467.636719 797.140625 467.425781 797.328125 467.214844 797.519531 C 466.59375 798.265625 466.0625 799.015625 465.4375 799.765625 C 465.234375 799.953125 465.125 800.234375 465.019531 800.421875 C 464.921875 800.515625 464.816406 800.605469 464.710938 800.703125 C 464.394531 801.171875 464.1875 801.640625 463.871094 802.105469 C 463.765625 802.203125 463.660156 802.292969 463.554688 802.390625 C 462.820313 803.605469 462.09375 804.730469 461.574219 805.945313 C 459.582031 801.730469 458.222656 797.519531 457.074219 792.832031 C 455.5 785.902344 454.878906 779.4375 455.296875 772.613281 C 455.402344 771.390625 455.5 770.078125 455.613281 768.863281 C 455.921875 766.613281 456.136719 764.371094 456.761719 762.121094 C 456.867188 761.65625 456.761719 761.09375 456.972656 760.621094 C 457.074219 760.441406 457.179688 760.246094 457.179688 760.15625 C 453.304688 756.316406 449.335938 753.136719 444.320313 750.414063 C 437.832031 746.957031 431.140625 744.796875 423.917969 743.859375 C 429.984375 740.125 436.367188 736.75 443.375 734.3125 C 443.582031 734.214844 443.6875 734.125 443.898438 734.035156 C 452.996094 730.839844 462.402344 728.972656 472.023438 728.230469 C 474.125 724.578125 475.375 720.828125 476.523438 716.796875 C 476.523438 716.609375 476.523438 716.519531 476.523438 716.332031 C 477.777344 710.894531 477.882813 705.847656 477.152344 700.507813 C 477.046875 700.035156 476.945313 699.667969 476.839844 699.195313 C 476.523438 697.507813 476.320313 695.820313 475.691406 694.230469 C 479.5625 696.390625 483.011719 699.097656 486.566406 701.820313 C 488.34375 703.222656 489.917969 704.625 491.582031 706.214844 C 494.515625 709.027344 497.019531 711.652344 499.636719 714.832031 C 499.839844 715.117188 500.058594 715.492188 500.261719 715.769531 C 500.375 715.957031 500.574219 715.957031 500.679688 716.144531 C 501.941406 717.921875 503.089844 719.332031 504.339844 721.105469 C 505.179688 722.328125 505.914063 723.542969 506.75 724.757813 C 506.957031 725.230469 507.273438 725.695313 507.484375 726.167969 C 508.21875 727.382813 508.9375 728.597656 509.679688 729.820313 C 512.289063 730 515.011719 730 517.625 729.820313 C 518.042969 729.722656 518.570313 729.722656 518.980469 729.625 C 519.296875 729.625 519.511719 729.625 519.820313 729.625 C 520.136719 729.625 520.339844 729.445313 520.660156 729.445313 C 529.757813 728.507813 538.121094 725.042969 545.335938 720.265625 C 544.292969 725.132813 542.621094 729.917969 540.632813 734.589844 C 540.535156 734.777344 540.421875 734.875 540.320313 735.0625 C 535.820313 745.269531 529.136719 754.628906 520.757813 762.585938 C 521.394531 764.933594 522.117188 767.273438 523.0625 769.515625 C 523.171875 769.800781 523.171875 769.988281 523.277344 770.273438 C 524.53125 773.167969 525.886719 775.792969 527.875 778.5 C 528.296875 778.875 528.5 779.347656 528.820313 779.820313 C 528.917969 779.910156 529.023438 780.007813 529.136719 780.097656 C 530.800781 782.445313 532.796875 784.3125 534.882813 786.375 C 534.992188 786.464844 535.195313 786.464844 535.300781 786.5625 C 536.761719 787.964844 538.234375 789.082031 539.898438 790.214844 Z M 539.898438 790.214844 L 539.898438 790.214844 Z M 539.898438 790.214844 "/>
</g>
</g>
</svg>
