<?xml version="1.0" encoding="utf-8"?>
<!-- Generator: Adobe Illustrator 18.1.1, SVG Export Plug-In . SVG Version: 6.00 Build 0)  -->
<!DOCTYPE svg PUBLIC "-//W3C//DTD SVG 1.1//EN" "http://www.w3.org/Graphics/SVG/1.1/DTD/svg11.dtd">
<svg version="1.1" id="Layer_1" xmlns="http://www.w3.org/2000/svg" xmlns:xlink="http://www.w3.org/1999/xlink" x="0px" y="0px"
	 viewBox="0 0 126.8 143.8" style="enable-background:new 0 0 126.8 143.8;" xml:space="preserve">
<style type="text/css">
	.st0{fill:#4E6829;}
	.st1{fill:none;stroke:#4E6829;stroke-width:3.6473;stroke-linecap:round;stroke-linejoin:round;stroke-miterlimit:10;}
	.st2{fill:#FFFFFF;stroke:#4E6829;stroke-width:3.6473;stroke-linecap:round;stroke-linejoin:round;stroke-miterlimit:10;}
</style>
<g>
	<g>
		<path class="st0" d="M0.1,89.8h4.6c0.8,0,1.5,0.1,2.2,0.2c0.7,0.1,1.2,0.4,1.7,0.7C9,91,9.4,91.4,9.6,91.9C9.9,92.4,10,93,10,93.6
			c0,0.8-0.2,1.5-0.7,2.1c-0.4,0.6-1.1,1.1-2,1.3v0.1c1.1,0.2,2,0.6,2.6,1.2c0.6,0.6,0.9,1.5,0.9,2.5c0,0.8-0.1,1.4-0.4,2
			c-0.3,0.6-0.7,1-1.2,1.4c-0.5,0.4-1.1,0.7-1.9,0.9c-0.7,0.2-1.5,0.3-2.4,0.3H0.1V89.8z M4.3,96.5c1.3,0,2.3-0.2,2.9-0.7
			c0.6-0.5,0.9-1.1,0.9-2c0-0.9-0.3-1.5-0.9-1.8c-0.6-0.4-1.5-0.6-2.7-0.6H2v5.1H4.3z M4.7,103.8c1.3,0,2.4-0.2,3.1-0.7
			c0.7-0.5,1.1-1.3,1.1-2.3c0-1-0.4-1.7-1.1-2.1c-0.7-0.4-1.8-0.7-3.1-0.7H2v5.9H4.7z"/>
		<path class="st0" d="M18.5,89.8h2V99c0,0.9,0.1,1.7,0.3,2.3c0.2,0.6,0.4,1.1,0.8,1.5c0.3,0.4,0.7,0.7,1.1,0.8
			c0.4,0.2,0.9,0.2,1.4,0.2c0.5,0,1-0.1,1.4-0.2c0.4-0.2,0.8-0.4,1.2-0.8c0.3-0.4,0.6-0.9,0.8-1.5c0.2-0.6,0.3-1.4,0.3-2.3v-9.2h1.9
			V99c0,1.2-0.1,2.3-0.4,3.1c-0.3,0.8-0.7,1.5-1.2,2.1c-0.5,0.5-1.1,0.9-1.8,1.1c-0.7,0.2-1.4,0.3-2.2,0.3c-0.8,0-1.5-0.1-2.2-0.3
			c-0.7-0.2-1.3-0.6-1.8-1.1c-0.5-0.5-0.9-1.2-1.2-2.1c-0.3-0.9-0.4-1.9-0.4-3.1V89.8z"/>
		<path class="st0" d="M38.3,89.8h2v15.5h-2V89.8z"/>
		<path class="st0" d="M49.1,89.8h2v13.8h6.8v1.7h-8.8V89.8z"/>
		<path class="st0" d="M65.1,89.8H69c2.4,0,4.2,0.7,5.5,2c1.2,1.3,1.9,3.2,1.9,5.7c0,1.2-0.2,2.3-0.5,3.3c-0.3,1-0.8,1.8-1.4,2.5
			c-0.6,0.7-1.4,1.2-2.3,1.5c-0.9,0.4-1.9,0.5-3.1,0.5h-4V89.8z M68.8,103.8c1.8,0,3.2-0.5,4.1-1.6c0.9-1.1,1.4-2.6,1.4-4.6
			c0-2-0.5-3.5-1.4-4.5c-0.9-1-2.3-1.6-4.1-1.6h-1.8v12.3H68.8z"/>
		<path class="st0" d="M84.3,89.8h2v15.5h-2V89.8z"/>
		<path class="st0" d="M95,89.8h2l5.6,9.7l1.7,3.2h0.1c-0.1-0.8-0.1-1.6-0.2-2.4c-0.1-0.8-0.1-1.7-0.1-2.5v-8h1.9v15.5h-2l-5.6-9.8
			l-1.7-3.2h-0.1c0.1,0.8,0.1,1.6,0.2,2.4c0.1,0.8,0.1,1.6,0.1,2.4v8.1H95V89.8z"/>
		<path class="st0" d="M114,97.6c0-1.2,0.2-2.4,0.5-3.4c0.4-1,0.9-1.8,1.5-2.5c0.6-0.7,1.4-1.2,2.3-1.6c0.9-0.4,1.8-0.6,2.9-0.6
			c1.1,0,2,0.2,2.7,0.6c0.7,0.4,1.3,0.8,1.8,1.3l-1.1,1.3c-0.4-0.4-0.8-0.8-1.4-1c-0.5-0.3-1.2-0.4-2-0.4c-0.8,0-1.5,0.1-2.1,0.4
			c-0.6,0.3-1.2,0.7-1.6,1.3c-0.4,0.5-0.8,1.2-1,2c-0.2,0.8-0.4,1.6-0.4,2.6c0,1,0.1,1.9,0.3,2.6c0.2,0.8,0.6,1.4,1,2
			c0.4,0.6,1,1,1.6,1.3c0.6,0.3,1.4,0.5,2.2,0.5c0.6,0,1.1-0.1,1.6-0.2c0.5-0.2,0.9-0.4,1.2-0.7v-4h-3.3v-1.6h5.1v6.5
			c-0.5,0.5-1.2,1-2,1.3c-0.8,0.3-1.8,0.5-2.8,0.5c-1,0-2-0.2-2.8-0.5c-0.9-0.4-1.6-0.9-2.2-1.6c-0.6-0.7-1.1-1.5-1.4-2.5
			C114.2,100,114,98.9,114,97.6z"/>
	</g>
	<g>
		<path class="st0" d="M0.1,111.9h3.3v9.8h4.8v2.8H0.1V111.9z"/>
		<path class="st0" d="M19.3,124.7c-0.9,0-1.7-0.2-2.4-0.4c-0.7-0.3-1.3-0.7-1.8-1.3c-0.5-0.6-0.9-1.3-1.2-2.1
			c-0.3-0.8-0.4-1.8-0.4-2.8c0-1,0.1-2,0.4-2.8c0.3-0.8,0.7-1.5,1.2-2c0.5-0.5,1.1-1,1.8-1.3c0.7-0.3,1.5-0.4,2.4-0.4
			c0.9,0,1.7,0.1,2.4,0.4c0.7,0.3,1.3,0.7,1.9,1.3c0.5,0.6,0.9,1.2,1.2,2c0.3,0.8,0.4,1.7,0.4,2.8c0,1-0.1,2-0.4,2.8
			c-0.3,0.8-0.7,1.5-1.2,2.1c-0.5,0.6-1.1,1-1.9,1.3C21,124.6,20.2,124.7,19.3,124.7z M19.3,121.8c0.8,0,1.4-0.3,1.8-1
			c0.4-0.7,0.6-1.6,0.6-2.7s-0.2-2-0.6-2.7c-0.4-0.6-1-0.9-1.8-0.9c-0.8,0-1.4,0.3-1.8,0.9c-0.4,0.6-0.6,1.5-0.6,2.7
			s0.2,2.1,0.6,2.7C18,121.5,18.6,121.8,19.3,121.8z"/>
		<path class="st0" d="M30.7,118.3c0-1.1,0.2-2,0.5-2.8c0.3-0.8,0.8-1.5,1.4-2.1c0.6-0.6,1.2-1,2-1.3c0.7-0.3,1.5-0.4,2.3-0.4
			c0.8,0,1.5,0.2,2.2,0.5c0.7,0.3,1.2,0.7,1.7,1.2l-1.8,2.1c-0.3-0.3-0.6-0.5-0.9-0.6c-0.3-0.1-0.7-0.2-1.1-0.2
			c-0.4,0-0.7,0.1-1.1,0.3c-0.3,0.2-0.6,0.4-0.9,0.7c-0.3,0.3-0.5,0.7-0.6,1.1c-0.1,0.5-0.2,1-0.2,1.5c0,1.2,0.3,2.1,0.7,2.7
			c0.5,0.6,1.2,1,2,1c0.5,0,0.9-0.1,1.3-0.3c0.4-0.2,0.7-0.4,0.9-0.7l1.8,2c-0.5,0.6-1.2,1.1-1.9,1.4c-0.7,0.3-1.4,0.5-2.2,0.5
			c-0.8,0-1.6-0.1-2.3-0.4c-0.7-0.3-1.4-0.7-1.9-1.2c-0.6-0.5-1-1.2-1.3-2C30.9,120.3,30.7,119.3,30.7,118.3z"/>
		<path class="st0" d="M53,121.8h-3.5l-0.6,2.7h-3.4l3.8-12.6h4l3.8,12.6h-3.5L53,121.8z M52.4,119.2l-0.2-0.9
			c-0.2-0.6-0.3-1.3-0.5-2c-0.2-0.7-0.3-1.4-0.5-2h-0.1c-0.1,0.6-0.3,1.3-0.4,2c-0.2,0.7-0.3,1.4-0.5,2l-0.2,0.9H52.4z"/>
		<path class="st0" d="M62.5,111.9h3.3v9.8h4.8v2.8h-8.1V111.9z"/>
		<path class="st0" d="M76.4,111.9h3.3v12.6h-3.3V111.9z"/>
		<path class="st0" d="M85.7,122.5l5.2-7.8h-4.7v-2.8h8.8v2l-5.2,7.8H95v2.8h-9.3V122.5z"/>
		<path class="st0" d="M101,111.9h8.1v2.8h-4.8v2h4.1v2.8h-4.1v2.3h5v2.8H101V111.9z"/>
		<path class="st0" d="M115.6,111.9h3.7c1,0,1.8,0.1,2.6,0.4c0.8,0.2,1.5,0.6,2,1.1c0.6,0.5,1,1.2,1.3,1.9c0.3,0.8,0.5,1.7,0.5,2.8
			c0,1.1-0.2,2.1-0.5,2.9c-0.3,0.8-0.7,1.5-1.3,2c-0.6,0.5-1.2,0.9-2,1.1c-0.8,0.2-1.6,0.4-2.5,0.4h-3.9V111.9z M119.2,121.8
			c0.5,0,0.9-0.1,1.3-0.2c0.4-0.1,0.7-0.3,1-0.6c0.3-0.3,0.5-0.6,0.7-1.1c0.2-0.5,0.3-1.1,0.3-1.8c0-0.7-0.1-1.3-0.3-1.8
			c-0.2-0.5-0.4-0.8-0.7-1.1c-0.3-0.3-0.6-0.4-1-0.5c-0.4-0.1-0.8-0.1-1.3-0.1H119v7.3H119.2z"/>
	</g>
	<g>
		<path class="st0" d="M0.4,130.9h7.3v1.4H2v4h4.8v1.4H2v4.6h5.9v1.4H0.4V130.9z"/>
		<path class="st0" d="M13.1,137.2c0-1,0.1-1.9,0.4-2.7c0.3-0.8,0.7-1.5,1.2-2.1c0.5-0.6,1.1-1,1.8-1.3c0.7-0.3,1.4-0.5,2.2-0.5
			c0.8,0,1.4,0.2,2,0.5c0.6,0.3,1.1,0.7,1.4,1.1l-0.9,1c-0.3-0.4-0.7-0.6-1.1-0.9c-0.4-0.2-0.9-0.3-1.4-0.3c-0.6,0-1.2,0.1-1.6,0.4
			c-0.5,0.2-0.9,0.6-1.3,1c-0.3,0.4-0.6,1-0.8,1.6c-0.2,0.6-0.3,1.3-0.3,2.1c0,0.8,0.1,1.5,0.3,2.2c0.2,0.6,0.4,1.2,0.8,1.6
			c0.3,0.5,0.7,0.8,1.2,1c0.5,0.2,1,0.4,1.6,0.4c0.6,0,1.2-0.1,1.6-0.4c0.5-0.2,0.9-0.6,1.3-1l0.9,1c-0.5,0.6-1.1,1-1.7,1.4
			c-0.6,0.3-1.4,0.5-2.2,0.5c-0.8,0-1.5-0.1-2.2-0.4c-0.7-0.3-1.3-0.7-1.8-1.3c-0.5-0.6-0.9-1.2-1.2-2.1
			C13.2,139.2,13.1,138.3,13.1,137.2z"/>
		<path class="st0" d="M32.9,143.8c-0.8,0-1.5-0.2-2.2-0.5c-0.7-0.3-1.2-0.8-1.7-1.3c-0.5-0.6-0.8-1.3-1.1-2.1
			c-0.3-0.8-0.4-1.7-0.4-2.8c0-1,0.1-1.9,0.4-2.7c0.3-0.8,0.6-1.5,1.1-2c0.5-0.6,1-1,1.7-1.3c0.7-0.3,1.4-0.4,2.2-0.4
			c0.8,0,1.5,0.2,2.2,0.5c0.7,0.3,1.2,0.7,1.7,1.3c0.5,0.6,0.9,1.2,1.1,2c0.3,0.8,0.4,1.7,0.4,2.7c0,1-0.1,1.9-0.4,2.8
			c-0.3,0.8-0.6,1.5-1.1,2.1c-0.5,0.6-1.1,1-1.7,1.3C34.5,143.7,33.7,143.8,32.9,143.8z M32.9,142.4c0.6,0,1.1-0.1,1.5-0.4
			c0.5-0.2,0.9-0.6,1.2-1.1c0.3-0.5,0.6-1,0.8-1.6c0.2-0.6,0.3-1.4,0.3-2.2c0-0.8-0.1-1.5-0.3-2.1c-0.2-0.6-0.4-1.2-0.8-1.6
			c-0.3-0.4-0.7-0.8-1.2-1c-0.5-0.2-1-0.4-1.5-0.4s-1.1,0.1-1.5,0.4c-0.5,0.2-0.9,0.6-1.2,1c-0.3,0.4-0.6,1-0.8,1.6
			c-0.2,0.6-0.3,1.3-0.3,2.1c0,0.8,0.1,1.5,0.3,2.2c0.2,0.6,0.4,1.2,0.8,1.6c0.3,0.5,0.7,0.8,1.2,1.1
			C31.9,142.3,32.4,142.4,32.9,142.4z"/>
		<path class="st0" d="M44.8,130.9h1.7l4.6,8l1.4,2.6h0.1c0-0.6-0.1-1.3-0.1-2c0-0.7-0.1-1.4-0.1-2v-6.5h1.5v12.7h-1.7l-4.6-8
			l-1.4-2.6h-0.1c0.1,0.6,0.1,1.3,0.1,2c0,0.7,0.1,1.3,0.1,2v6.6h-1.5V130.9z"/>
		<path class="st0" d="M65.8,143.8c-0.8,0-1.5-0.2-2.2-0.5c-0.7-0.3-1.2-0.8-1.7-1.3c-0.5-0.6-0.8-1.3-1.1-2.1
			c-0.3-0.8-0.4-1.7-0.4-2.8c0-1,0.1-1.9,0.4-2.7c0.3-0.8,0.6-1.5,1.1-2c0.5-0.6,1-1,1.7-1.3c0.7-0.3,1.4-0.4,2.2-0.4
			c0.8,0,1.5,0.2,2.2,0.5c0.7,0.3,1.2,0.7,1.7,1.3c0.5,0.6,0.9,1.2,1.1,2c0.3,0.8,0.4,1.7,0.4,2.7c0,1-0.1,1.9-0.4,2.8
			c-0.3,0.8-0.6,1.5-1.1,2.1c-0.5,0.6-1.1,1-1.7,1.3C67.3,143.7,66.6,143.8,65.8,143.8z M65.8,142.4c0.6,0,1.1-0.1,1.5-0.4
			c0.5-0.2,0.8-0.6,1.2-1.1c0.3-0.5,0.6-1,0.8-1.6c0.2-0.6,0.3-1.4,0.3-2.2c0-0.8-0.1-1.5-0.3-2.1c-0.2-0.6-0.4-1.2-0.8-1.6
			c-0.3-0.4-0.7-0.8-1.2-1c-0.5-0.2-1-0.4-1.5-0.4c-0.6,0-1.1,0.1-1.5,0.4c-0.5,0.2-0.9,0.6-1.2,1c-0.3,0.4-0.6,1-0.8,1.6
			c-0.2,0.6-0.3,1.3-0.3,2.1c0,0.8,0.1,1.5,0.3,2.2c0.2,0.6,0.4,1.2,0.8,1.6c0.3,0.5,0.7,0.8,1.2,1.1
			C64.7,142.3,65.2,142.4,65.8,142.4z"/>
		<path class="st0" d="M77.7,130.9h1.9l2.5,6.8l0.9,2.6H83l0.9-2.6l2.4-6.8h1.9v12.7h-1.5v-7c0-0.6,0-1.2,0.1-1.9
			c0-0.7,0.1-1.3,0.1-1.9h-0.1l-1,2.8l-2.4,6.6h-0.9l-2.5-6.6l-1-2.8h-0.1c0,0.6,0.1,1.2,0.1,1.9c0,0.7,0.1,1.3,0.1,1.9v7h-1.5
			V130.9z"/>
		<path class="st0" d="M95.4,130.9H97v12.7h-1.6V130.9z"/>
		<path class="st0" d="M104.1,130.9h7.3v1.4h-5.7v4h4.8v1.4h-4.8v4.6h5.9v1.4h-7.5V130.9z"/>
		<path class="st0" d="M118.3,140.8c0.5,0.5,1,0.9,1.6,1.2c0.6,0.3,1.2,0.4,1.9,0.4c0.8,0,1.5-0.2,1.9-0.6c0.5-0.4,0.7-0.9,0.7-1.5
			c0-0.3-0.1-0.6-0.2-0.8c-0.1-0.2-0.3-0.4-0.4-0.6c-0.2-0.2-0.4-0.3-0.7-0.4c-0.3-0.1-0.5-0.3-0.8-0.4l-1.8-0.8
			c-0.3-0.1-0.6-0.3-0.9-0.5c-0.3-0.2-0.6-0.4-0.8-0.7c-0.2-0.3-0.4-0.6-0.6-0.9c-0.2-0.4-0.2-0.8-0.2-1.2c0-0.5,0.1-0.9,0.3-1.3
			c0.2-0.4,0.5-0.8,0.8-1.1c0.4-0.3,0.8-0.5,1.3-0.7c0.5-0.2,1-0.3,1.6-0.3c0.8,0,1.5,0.1,2.1,0.4c0.6,0.3,1.2,0.7,1.6,1.1l-0.9,1
			c-0.4-0.4-0.8-0.7-1.3-0.9c-0.5-0.2-1-0.3-1.6-0.3c-0.7,0-1.3,0.2-1.7,0.5c-0.4,0.3-0.6,0.8-0.6,1.4c0,0.3,0.1,0.6,0.2,0.8
			c0.1,0.2,0.3,0.4,0.5,0.6c0.2,0.2,0.4,0.3,0.7,0.4c0.2,0.1,0.5,0.2,0.8,0.3l1.8,0.8c0.4,0.2,0.7,0.3,1,0.5
			c0.3,0.2,0.6,0.4,0.8,0.7c0.2,0.3,0.4,0.6,0.5,0.9c0.1,0.4,0.2,0.8,0.2,1.2c0,0.5-0.1,1-0.3,1.4c-0.2,0.4-0.5,0.8-0.9,1.2
			c-0.4,0.3-0.8,0.6-1.4,0.8c-0.5,0.2-1.1,0.3-1.8,0.3c-0.9,0-1.7-0.2-2.5-0.5c-0.8-0.3-1.4-0.8-2-1.4L118.3,140.8z"/>
	</g>
</g>
<g>
	<g>
		<polyline class="st1" points="26.2,78.5 17.5,14.8 14.5,14.8 5.8,78.5 		"/>
		<line class="st2" x1="2.8" y1="61.2" x2="29.2" y2="61.2"/>
		<line class="st2" x1="4.9" y1="40.9" x2="27.1" y2="40.9"/>
	</g>
	<g>
		<g>
			<g>
				<g>
					<path class="st0" d="M31.9,19.2c0.5-1.1-0.1-2-1.4-2h-9.6c-1.2,0-1.5,0.7-0.6,1.5l6.8,6.8c0.9,0.9,1.9,0.6,2.4-0.5L31.9,19.2z"
						/>
				</g>
				<g>
					<path class="st0" d="M25,29.4c1.1-0.5,1.3-1.5,0.5-2.4l-6.8-6.8c-0.9-0.9-1.5-0.6-1.5,0.6l0,4.2c0,1.2,0,3.2,0,4.4l0,1
						c0,1.2,0.9,1.8,2,1.4L25,29.4z"/>
				</g>
				<g>
					<path class="st0" d="M29.4,7c-0.5-1.1-1.5-1.3-2.4-0.5l-6.8,6.8c-0.9,0.9-0.6,1.5,0.6,1.5h9.6c1.2,0,1.8-0.9,1.4-2L29.4,7z"/>
				</g>
				<g>
					<path class="st0" d="M19.2,0.2c-1.1-0.5-2,0.1-2,1.4v9.6c0,1.2,0.7,1.5,1.5,0.6l6.8-6.8C26.3,4.1,26.1,3,25,2.6L19.2,0.2z"/>
				</g>
				<g>
					<path class="st0" d="M1.5,17.1c-1.2,0-1.8,0.9-1.4,2L2.6,25c0.5,1.1,1.5,1.3,2.4,0.5l2.6-2.6c0.9-0.9,2.2-2.2,3.1-3.1l1.1-1.1
						c0.9-0.9,0.6-1.5-0.6-1.5H1.5z"/>
				</g>
				<g>
					<path class="st0" d="M12.8,31.9c1.1,0.5,2-0.1,2-1.4v-1c0-1.2,0-3.2,0-4.4v-4.2c0-1.2-0.7-1.5-1.5-0.6l-6.8,6.8
						C5.7,27.9,5.9,29,7,29.4L12.8,31.9z"/>
				</g>
				<g>
					<path class="st0" d="M7,2.6C5.9,3,5.7,4.1,6.6,4.9l2,2c0.9,0.9,2.2,2.2,3.1,3.1l1.6,1.6c0.9,0.9,1.5,0.6,1.5-0.6l0-9.6
						c0-1.2-0.9-1.8-2-1.4L7,2.6z"/>
				</g>
				<g>
					<path class="st0" d="M11.1,14.9c1.2,0,1.5-0.7,0.6-1.5L4.9,6.6C4.1,5.7,3,5.9,2.6,7l-2.4,5.8c-0.5,1.1,0.1,2,1.4,2H11.1z"/>
				</g>
			</g>
		</g>
		<path class="st0" d="M16,21.3c-2.9,0-5.3-2.4-5.3-5.3c0-2.9,2.4-5.3,5.3-5.3c2.9,0,5.3,2.4,5.3,5.3C21.3,18.9,18.9,21.3,16,21.3z"
			/>
	</g>
	<path class="st0" d="M104,15.7c-0.7-0.8-1.7-1.3-2.8-1.3H57.3c-1.1,0-2.1,0.5-2.8,1.3L32.5,40.3c-1.4,1.6-1.2,3.9,0.3,5.3
		c0.7,0.6,1.6,1,2.5,1c1.1,0,2.1-0.5,2.8-1.3L59,21.9h40.5l20.8,23.4c0.7,0.8,1.7,1.3,2.8,1.3c0.9,0,1.8-0.3,2.5-1
		c1.6-1.4,1.7-3.8,0.3-5.3L104,15.7z"/>
	<path class="st0" d="M119.4,46.1L99,23H59.5L39,46.1c-0.9,1-2.3,1.6-3.6,1.6v26.4c0,2.4,2,4.4,4.4,4.4h35.1c2.4,0,6.4,0,8.8,0h35.1
		c2.4,0,4.4-2,4.4-4.4V47.7C121.7,47.7,120.4,47.1,119.4,46.1z M68.2,29.1h21.9v8.8H68.2V29.1z M95.7,75.6H62.8V55.9
		c0-1.2,1-2.2,2.2-2.2h28.5c1.2,0,2.2,1,2.2,2.2V75.6z"/>
</g>
</svg>
