<?xml version="1.0" encoding="utf-8"?>
<!-- Generator: Adobe Illustrator 18.1.1, SVG Export Plug-In . SVG Version: 6.00 Build 0)  -->
<!DOCTYPE svg PUBLIC "-//W3C//DTD SVG 1.1//EN" "http://www.w3.org/Graphics/SVG/1.1/DTD/svg11.dtd">
<svg version="1.1" id="Layer_1" xmlns="http://www.w3.org/2000/svg" xmlns:xlink="http://www.w3.org/1999/xlink" x="0px" y="0px"
	 viewBox="0 0 309.6 309.6" enable-background="new 0 0 309.6 309.6" xml:space="preserve">
<g>
	<g>
		<path fill="#38353B" d="M77.2,229.4c0,2.5-2.3,4.7-5,4.7c-2.6,0-5-2.2-5-4.7v-38.5c0.1-2.5,2.4-4.7,5-4.7c2.7,0,5,2.1,5,4.7V229.4
			z"/>
		<path fill="#38353B" d="M87.2,222.7c2.1-1,4.1-0.1,5.1,1.2c1.7,1.8,3.8,2.8,6,2.8c2.1,0,4.1-0.3,4.1-2c0-1.4-0.8-1.8-3.1-2.6
			l-3.6-1.3c-9.6-3.2-9.5-7.7-9.5-10.7c0-4.7,5.7-9.1,12.4-9.1c4.6,0,9.3,1.4,11.5,5.3c1.2,2.1,0.6,4-0.8,4.9
			c-2.1,1.2-4.1,0.8-6.1-0.8c-1.4-1-2.6-1.4-3.8-1.4c-2.1,0-3.5,0.7-3.5,1.9c0,1,0.8,1.6,2.7,2.3l4.9,1.6c7.7,2.5,8.7,7.5,8.7,9.6
			c0,6.8-7.1,10-13.8,10c-5.1,0-11.1-2.1-12.8-6.8C84.8,225.5,85.6,223.4,87.2,222.7z"/>
		<path fill="#38353B" d="M144.6,231.4c-3.2,2.1-7.3,2.9-11,2.9c-9.2,0-16.7-6.6-16.7-16.7c0-10.1,7.5-16.5,16.7-16.5
			c9.1,0,16.3,6.7,16.3,16.8c0,1.7-1.4,2.9-2.9,2.9h-20.6c0.5,3.7,4.5,5.3,7.9,5.3c1.9,0,3.6-0.1,5.5-1.5c2.2-1.5,4.7-1.1,6,0.5
			C147.6,227.1,146.9,230.1,144.6,231.4z M140.4,214.9c-0.5-3.9-3.1-5.8-6.7-5.8c-3.6,0-6.3,1.8-7.1,5.8H140.4z"/>
		<path fill="#38353B" d="M180,206.4c-0.3,2.4-2.6,3.5-4.7,3.5c-0.7,0-1.7-0.1-2.3-0.1c-5.3,0-7.1,4.1-7.3,12.1v7.9
			c0,2.4-2.2,4.2-4.8,4.2c-2.5,0-4.7-1.9-4.8-4.2v-24.1c0.1-2.3,2.3-4.2,4.8-4.2c2.6,0,4.8,1.8,4.8,4.2v3.5c1.8-6,5.1-8,8.4-8
			C177.3,201.1,180.6,201.9,180,206.4z"/>
		<path fill="#38353B" d="M204.8,230c-1,2.5-2.7,4-5.3,4h-0.4c-2.5,0-4.4-1.5-5.5-4l-9.6-22.7c-0.8-2.2,0.5-5.1,2.8-5.7
			c3-0.8,5.1,0.6,6,2.7l6.5,17.2l6.5-17.2c0.8-2.1,2.9-3.5,5.9-2.7c2.3,0.6,3.6,3.5,2.8,5.7L204.8,230z"/>
		<path fill="#38353B" d="M245.8,231.4c-3.2,2.1-7.3,2.9-11,2.9c-9.2,0-16.7-6.6-16.7-16.7c0-10.1,7.5-16.5,16.7-16.5
			c9.1,0,16.3,6.7,16.3,16.8c0,1.7-1.4,2.9-2.9,2.9h-20.6c0.5,3.7,4.5,5.3,7.9,5.3c1.9,0,3.6-0.1,5.5-1.5c2.2-1.5,4.7-1.1,6,0.5
			C248.8,227.1,248.1,230.1,245.8,231.4z M241.6,214.9c-0.5-3.9-3.1-5.8-6.7-5.8c-3.6,0-6.3,1.8-7.1,5.8H241.6z"/>
		<path fill="#38353B" d="M276.4,234.3c-9.7,0-18.3-6.8-18.3-17.5v-25.9c0.1-2.5,2.4-4.7,5-4.7c2.7,0,5,2.1,5,4.7v25.9
			c0,4.9,4.1,8.1,8.3,8.1c4.1,0,8.2-3.2,8.2-8.1v-25.9c0-2.5,2.3-4.7,5-4.7c2.6,0,4.9,2.2,5,4.7v25.9c0,10.7-8.6,17.5-18.3,17.5
			H276.4z"/>
	</g>
	<polygon fill="#38353B" points="72.3,177.6 89.7,169.1 89.7,150.6 72,141.3 55.2,150.7 55.2,169.1 	"/>
	<path fill="#38353B" d="M69.9,147.7V99.6c0-1.2,4.1-1.3,4.1-0.1v48.1C74,148.8,69.9,148.9,69.9,147.7z"/>
	<path fill="#38353B" d="M61.5,154.6c-0.4,0.7-1.3,0.9-2,0.5l-27.9-16.3c-0.7-0.4-0.9-1.3-0.5-2l0,0c0.4-0.7,1.3-0.9,2-0.5L61,152.6
		C61.7,153,61.9,153.9,61.5,154.6L61.5,154.6z"/>
	<path fill="#38353B" d="M83.6,165.9c0.4-0.7,1.3-1,2-0.6l28.5,15.2c0.7,0.4,1,1.3,0.6,2l0,0c-0.4,0.7-1.3,1-2,0.6l-28.5-15.2
		C83.5,167.5,83.2,166.6,83.6,165.9L83.6,165.9z"/>
	<path fill="#38353B" d="M60,166.2c0.5,0.7,0.3,1.7-0.4,2.2l-28.7,19.8c-0.7,0.5-1.7,0.3-2.2-0.4l0,0c-0.5-0.7-0.3-1.7,0.4-2.2
		l28.7-19.8C58.5,165.3,59.5,165.5,60,166.2L60,166.2z"/>
	<polygon fill="#FF7600" points="109.2,188.7 118,184.6 118.2,175.3 109.4,170.4 100.9,175 100.7,184.2 	"/>
	<polygon fill="#00ACB1" points="24.4,199 32.8,194.2 32.3,185 23.2,180.9 15,186.1 15.6,195.3 	"/>
	<polygon fill="#FF7600" points="24.9,141.9 34,138.7 35.1,129.5 26.9,123.8 17.9,127.5 16.9,136.7 	"/>
	<polygon fill="#00ACB1" points="71.8,107.9 87.4,100.2 87.4,83.6 71.5,75.2 56.4,83.7 56.4,100.2 	"/>
</g>
</svg>
