<?xml version="1.0" encoding="utf-8"?>
<!-- Generator: Adobe Illustrator 18.1.1, SVG Export Plug-In . SVG Version: 6.00 Build 0)  -->
<!DOCTYPE svg PUBLIC "-//W3C//DTD SVG 1.1//EN" "http://www.w3.org/Graphics/SVG/1.1/DTD/svg11.dtd">
<svg version="1.1" id="Layer_1" xmlns="http://www.w3.org/2000/svg" xmlns:xlink="http://www.w3.org/1999/xlink" x="0px" y="0px"
	 viewBox="0 0 123.8 123.8" enable-background="new 0 0 123.8 123.8" xml:space="preserve">
<g>
	<polygon fill="#38353B" points="67.6,102.4 85,93.8 85,75.4 67.3,66.1 50.5,75.5 50.5,93.8 	"/>
	<path fill="#38353B" d="M65.2,72.5V24.4c0-1.2,4.1-1.3,4.1-0.1v48.1C69.3,73.6,65.2,73.7,65.2,72.5z"/>
	<path fill="#38353B" d="M56.8,79.4c-0.4,0.7-1.3,0.9-2,0.5L27,63.5c-0.7-0.4-0.9-1.3-0.5-2l0,0c0.4-0.7,1.3-0.9,2-0.5l27.9,16.3
		C57,77.8,57.2,78.7,56.8,79.4L56.8,79.4z"/>
	<path fill="#38353B" d="M78.9,90.7c0.4-0.7,1.3-1,2-0.6l28.5,15.2c0.7,0.4,1,1.3,0.6,2l0,0c-0.4,0.7-1.3,1-2,0.6L79.5,92.7
		C78.8,92.3,78.5,91.4,78.9,90.7L78.9,90.7z"/>
	<path fill="#38353B" d="M55.3,91c0.5,0.7,0.3,1.7-0.4,2.2l-28.7,19.8c-0.7,0.5-1.7,0.3-2.2-0.4l0,0c-0.5-0.7-0.3-1.7,0.4-2.2
		l28.7-19.8C53.8,90.1,54.8,90.3,55.3,91L55.3,91z"/>
	<polygon fill="#EF6324" points="104.5,113.4 113.3,109.3 113.5,100.1 104.7,95.2 96.2,99.8 96,109 	"/>
	<polygon fill="#00ABB0" points="19.7,123.8 28.1,119 27.6,109.8 18.5,105.6 10.3,110.8 10.9,120 	"/>
	<polygon fill="#EF6324" points="20.2,66.7 29.3,63.5 30.4,54.3 22.2,48.6 13.2,52.3 12.2,61.4 	"/>
	<polygon fill="#00ABB0" points="67.1,32.7 82.7,25 82.7,8.4 66.8,0 51.7,8.5 51.7,25 	"/>
</g>
</svg>
