<?xml version="1.0" encoding="utf-8"?>
<!-- Generator: Adobe Illustrator 18.1.1, SVG Export Plug-In . SVG Version: 6.00 Build 0)  -->
<!DOCTYPE svg PUBLIC "-//W3C//DTD SVG 1.1//EN" "http://www.w3.org/Graphics/SVG/1.1/DTD/svg11.dtd">
<svg version="1.1" id="Layer_1" xmlns="http://www.w3.org/2000/svg" xmlns:xlink="http://www.w3.org/1999/xlink" x="0px" y="0px"
	 viewBox="0 0 1000 1000" style="enable-background:new 0 0 1000 1000;" xml:space="preserve">
<polygon points="845.7,769 788.6,799.9 686.6,745.5 686.6,609 559.8,542.4 559.8,255.3 668,201.9 668,67.9 539.6,0 417.6,68.7 
	417.6,201.9 526.7,256.4 526.7,543.4 419.6,603.4 238.5,497.6 245.6,438.6 179.3,392.6 106.6,422.5 98.5,496 163.2,538.8 225,517 
	407.9,624.9 407.9,746.4 211.7,881.7 149.4,853 83.2,895 88,969.3 159.1,1000 227,961.2 223.9,904.4 424.5,766 546,827.1 
	672.2,764.8 776.8,820.6 775.4,880.5 844.1,916 915.2,882.9 916.8,808.6 "/>
</svg>
