<?xml version="1.0" encoding="utf-8"?>
<!-- Generator: Adobe Illustrator 18.1.1, SVG Export Plug-In . SVG Version: 6.00 Build 0)  -->
<!DOCTYPE svg PUBLIC "-//W3C//DTD SVG 1.1//EN" "http://www.w3.org/Graphics/SVG/1.1/DTD/svg11.dtd">
<svg version="1.1" id="Layer_1" xmlns="http://www.w3.org/2000/svg" xmlns:xlink="http://www.w3.org/1999/xlink" x="0px" y="0px"
	 viewBox="1083.2 0 833.6 1000" enable-background="new 1083.2 0 833.6 1000" xml:space="preserve">
<g>
	<polygon opacity="0.87" fill="#FFFFFF" points="1546,827.1 1686.6,757.7 1686.6,609 1543.6,533.9 1407.9,609.9 1407.9,757.7 	"/>
	<path opacity="0.87" fill="#FFFFFF" d="M1526.7,585.6V197.1c0-9.7,33.1-10.5,33.1-0.8v388.5
		C1559.8,594.5,1526.7,595.3,1526.7,585.6z"/>
	<path opacity="0.87" fill="#FFFFFF" d="M1458.8,641.4c-3.2,5.7-10.5,7.3-16.2,4l-224.6-132.5c-5.7-3.2-7.3-10.5-4-16.2l0,0
		c3.2-5.7,10.5-7.3,16.2-4l225.4,131.7C1460.4,628.4,1462,635.7,1458.8,641.4L1458.8,641.4z"/>
	<path opacity="0.87" fill="#FFFFFF" d="M1637.3,732.6c3.2-5.7,10.5-8.1,16.2-4.8l230.2,122.8c5.7,3.2,8.1,10.5,4.8,16.2l0,0
		c-3.2,5.7-10.5,8.1-16.2,4.8l-230.2-122.8C1636.5,745.6,1634.1,738.3,1637.3,732.6L1637.3,732.6z"/>
	<path opacity="0.87" fill="#FFFFFF" d="M1446.7,735.1c4,5.7,2.4,13.7-3.2,17.8l-231.8,159.9c-5.7,4-13.7,2.4-17.8-3.2l0,0
		c-4-5.7-2.4-13.7,3.2-17.8l231.8-159.9C1434.6,727.8,1442.6,729.4,1446.7,735.1L1446.7,735.1z"/>
	<polygon fill="#FFFFFF" points="1844.1,916 1915.2,882.9 1916.8,808.6 1845.7,769 1777.1,806.1 1775.4,880.5 	"/>
	<polygon fill="#FFFFFF" points="1159.1,1000 1227,961.2 1222.9,886.9 1149.4,853 1083.2,895 1088,969.3 	"/>
	<polygon fill="#FFFFFF" points="1163.2,538.8 1236.7,512.9 1245.6,438.6 1179.3,392.6 1106.6,422.5 1098.5,496 	"/>
	<polygon fill="#FFFFFF" points="1542,264.1 1668,201.9 1668,67.9 1539.6,0 1417.6,68.7 1417.6,201.9 	"/>
</g>
</svg>
