<?xml version="1.0" encoding="utf-8"?>
<!-- Generator: Adobe Illustrator 18.1.1, SVG Export Plug-In . SVG Version: 6.00 Build 0)  -->
<!DOCTYPE svg PUBLIC "-//W3C//DTD SVG 1.1//EN" "http://www.w3.org/Graphics/SVG/1.1/DTD/svg11.dtd">
<svg version="1.1" id="Layer_1" xmlns="http://www.w3.org/2000/svg" xmlns:xlink="http://www.w3.org/1999/xlink" x="0px" y="0px"
	 viewBox="0 0 1000 1000" enable-background="new 0 0 1000 1000" xml:space="preserve">
<path fill-rule="evenodd" clip-rule="evenodd" fill="#FFFFFF" d="M146.9-0.8c53,4.2,62.5,35.1,58.9,91.2c1,0,2,0,3,0
	c42.5-18.8,46.5,20.3,59.8,52c1,5.6,2,11.1,3,16.7c4.6,3.9,9.1,7.8,13.7,11.8c11,15.6,19.1,36.9,29.4,56.9
	c4.3,5.5,8.5,11.1,12.8,16.6c7.2,16.5,7.8,34.1,12.8,54c8,32,17.5,62.3,26.5,98.1c5.5,22,24.1,42.3,17.7,67.7
	c-4.6,3.3-9.2,6.5-13.7,9.8c5.8,19,17.1,38.6,17.6,62.8c-2.3,0.7-4.6,1.3-6.8,2c1,5.2,2.1,8.1-2,10.8c-4.1,1-6.7-1.8-10.8,1
	c1.7,5.7,3,7.9,5.9,11.8c5.9,3.6,11.8,7.2,17.7,10.8c-3-1-5.9-2-8.8-3c0,1.7,0,3.3,0,4.9c-2.3-3.6-4.6-7.2-6.9-10.8
	c-5.2-2.8-5.4,2.1-8.8,3c-8.9,2.2-16-6.6-24.5-2c-1.7-6.9-3.3-13.7-4.9-20.6c-3.4-4.4-51.4-23.6-57.9-22.6
	c-1.7,6.2-6.6,19.4-11.8,22.6c-3.9,0.4-7.8,0.7-11.8,1c-6.9,2.8-34,48.2-36.3,56.9c1,6.8,2,13.7,2.9,20.6c-2.9,18.3-5.9,36.7-8.8,55
	c20.2,12.1,29,39.4,42.2,58.8c7.8,8.2,15.7,16.4,23.5,24.5c2,9.8,3.9,19.6,5.9,29.4c5.5,4.5,21.6,3.8,27.4,6.9
	c4,11,15.3,18.1,18.7,27.4c6.4,17.7-7.3,34.5-11.8,46.1c-13,33.5-19.5,69.2-57.9,76.5c-6.5-0.9-13.1-1.9-19.6-2.9
	c-9.6,1.3-23.2,3.8-37.3,5.9c-27.6,4.1-70.5,10.2-90.3-3.9c0-3.3,0-6.6,0-9.9c1-0.3,2-0.6,3-1c9.8-1.9,19.6-3.9,29.4-5.9
	c3.7-1.7,29.8-26.2,33.3-30.4c-3.9-45.2-23.8-82.4-34.4-123.6c-6-23.6-6.4-49.1-15.7-69.6c-4.6-6.9-9.2-13.7-13.7-20.6
	c-3.3-11.8-6.5-23.5-9.9-35.3c-3.9-9.3-11.1-16.6-13.7-28.5c0.3,0,0.6,0,1,0c2.3,8.1,6.9,18.6,12.7,23.6c0.7-0.4,1.3-0.7,2-1
	c2-46.7-19.4-74.8-26.5-112.8c0.3,0,0.6,0,1,0c6.2,22.4,29.1,66.8,26.4,81.4c1.3,0,2.6,0,3.9,0c3.3-20.4,19.2-125.6,12.8-140.3
	c-9-3.3-12.4-8-10.8-19.6c-14.4-7.9-28.8-15.7-43.1-23.5c-5.2,1.6-10.5,3.3-15.8,4.9c-0.5,31.9,12.2,53.4,17.7,79.5
	c-0.3,0-0.7,0-1,0c0-0.7,0-1.3,0-2c-5.9-16-11.7-32-17.6-48.1c-0.7,0.3-1.3,0.6-2,1c2.9,37.2,15.6,68.4,18.7,102c-0.4,0-0.7,0-1,0
	c-6.2-25.2-12.4-50.4-18.7-75.6c-1.7-15.3-3.3-30.7-4.9-46.1c-4.6-6.8-18.3-4.7-22.6-7.8c-1.3-7.1,7.9-61.8,7.9-61.8
	c0-0.4,0-0.7,0-1c11.4-6.5,22.9-13.1,34.3-19.6c7-5.6,11.2-18,17.6-24.6c-1.6-14-3.3-28.1-4.9-42.1c2.6-10.5,8.6-17.9,11.8-34.4
	c3.7-18.7-1.9-37.1,3.9-51.9c9.4-24.1,31.9-32.7,43.2-55c-5.9-12-16.1-19.1-21.6-30.4c-6.1-12.4-0.9-29.4-6.8-44.1
	c-6.2-15.1-20.5-32.6-4.9-51c2.6-0.7,5.2-1.3,7.8-2c2-3.9,3.9-7.8,5.9-11.8C128.5,1.7,140.4,5.3,146.9-0.8z M109.7,401.3
	c-7.7,6.4-19.4,5-30.4,8.8c0.7,6.8,3.4,6.7-3,8.9c-0.3,0.6-0.7,1.3-1,1.9c0.3,1,0.7,2,1,3c15.2,5.8,26.9,17.4,44.2,20.6
	c1-0.9,2-2,3-3c1.9-18.5-2.8-28.6-7.9-40.2C113.6,401.3,111.6,401.3,109.7,401.3z M297,402.3c-0.7,9.1-1.3,18.3-2,27.5
	c-4.8,23.3-11.7,45.1-11.8,77.5c18.6,9.4,37.3,18.9,55.9,28.4c-1.6-18.2,0.7-40.7-3-59.8c-2.9-1.3-5.9-2.6-8.8-3.9
	c-0.6-4.9-1.3-9.8-2-14.7c1.7-5.2,4-5.1,5.9-9.8C326,430.2,312.1,409.9,297,402.3z M75.3,514.2c0.3,0.7,0.7,1.3,1,1.9
	C76,515.4,75.6,514.8,75.3,514.2z M76.3,516.1c0.3,0.7,0.7,1.3,1,2C77,517.4,76.6,516.7,76.3,516.1z M81.2,526.9
	c0.3,0.6,0.6,1.3,1,2C81.8,528.2,81.5,527.5,81.2,526.9z M82.2,528.9c0.3,0.9,0.6,1.9,1,3c-0.4,0-0.7,0-1,0
	C82.2,530.8,82.2,529.8,82.2,528.9z M73.4,567.1c2.2,6.8,4.6,13.7,6.8,20.6c-0.4,0-0.7,0-1,0c0-0.6,0-1.3,0-2
	C77.3,579.5,75.3,573.4,73.4,567.1z M392.2,573c1,0.7,2,1.3,3,2C394.1,574.3,393.1,573.7,392.2,573z M384.3,575
	c5.9,9.2,11.8,18.3,17.6,27.5c17.8,26.6,36.8,60.6,60.9,81.4c17.8,0.5,18.6-3.3,27.4-9.8c-0.3,6.1-0.5,13.5,2,16.7
	c13.5-0.5,26.7,7.5,39.2,2c0-1.3,0-2.6,0-3.9c-14.9-16.4-35.5-27.2-49-45.2c13.7,12.1,27.5,24.2,41.2,36.3
	c9.3,5.7,14.2-2.9,21.6,6.8c-0.7,2.6-1.3,5.2-2,7.9c1,0,2,0,3,0c24.5-9.2,52.8-4,80.4-7.9c25.2-4.9,50.4-9.8,75.6-14.7
	c29.8-3.2,52.3,10.8,77.5,12.8c6-3.8,10.6-14.7,21.6-15.7c0.6,0.6,1.3,1.3,1.9,1.9c0.7,3,1.3,5.9,2,8.9
	c-5.3,7.7-14.9,17.9-16.7,27.4c9.4-4.9,19-9.8,28.4-14.7c9.5-3,22.7-0.3,29.4-3.9c-2.6-3.3-5.2-6.5-7.8-9.8c0.3-0.3,0.6-0.7,1-1
	c1.9,1,3.9,2,5.9,3c0-6.9,0-13.7,0-20.6c-0.6,11.6,0.7,17,6.9,21.6c0.9,0,2,0,2.9,0c-0.3-31.4,40.3-35.1,64.7-41.2
	c-0.3,0.6-0.6,1.3-1,2c-8.6,2.7-34.3,8.1-37.3,16.7c15.1-0.4,29.9,0.8,41.2,5.9c-8.2-0.7-16.3-1.3-24.5-2c0.7,1,1.3,2,2,3
	c20.9,6,54.7,29.9,55.9,54.9c-0.6-0.3-1.3-0.6-1.9-0.9c-1.1-7-3.6-10.3-6.9-14.7c-1.8,2.5-1.6,1.6-1,4.9c-0.6,2-1.3,3.9-2,5.9
	c2,3.3,3.9,6.5,5.9,9.8c-7.1,2.4-1,21-3,30.4c-0.3,0-0.7,0-1,0c0.3-8.1-0.4-14-2.9-18.7c-1.7-0.7-3.3-1.3-4.9-2
	c-3.1,1.9-4.8,4.1-6.9,6.9c1.7,2.3,3.3,4.6,4.9,6.8c-4.2-1.9-8.5-3.9-12.8-5.9c0,1,0,1.9,0,2.9c4.9,10.7,12.4,12.1,18.7,21.6
	c-5-0.1-4.3-1.8-5.9,3.9c6.3,2.2,4.4,2.5,5.9,7.8c4.9,1.3,9.8,2.6,14.7,3.9c0,0.3,0,0.6,0,0.9c-3.9-0.3-7.9-0.6-11.8-0.9
	c1.7,1.9,3.3,3.9,4.9,5.9c1.9,1.7,3.9,3.3,5.9,4.9c-2.6-0.4-5.2-0.7-7.8-1c0,1,0,1.9,0,3c3.6,2.9,7.2,5.9,10.8,8.8
	c-3-0.7-5.9-1.3-8.8-2c0,0.3,0,0.6,0,1c9,14.8,0.3,17.4,4.9,31.4c-1.3,0-2.6,0-3.9,0c0.6,7.4-2.1,14.9-3.9,23.5
	c-0.7,0.4-1.3,0.7-2,1c-3-3.1-1.1-2.4-4.9-1c-1,3.8-2.3,6.7-4.9,8.9c3.8,10.4,17.2,10.1,22.6,18.6c5.2,23.6,10.5,47.1,15.7,70.7
	c-1.1,6.2-5.7,11.4-8.8,15.7c-2.7-0.9-2.7,0.5-4.9-2c-9.5-11.9-2.9-36.4-7.8-53c-6.3-21-23.9-23.2-43.2-31.4
	c-14,7.9-6.2,7.7-23.5,10.8c-5,10.9-4.1,20.9-1,32.4c3.2,11.6-3.3,24.7-4.9,29.4c-12.2,0.7-17.5,15.4-25.5,23.5
	c-5.7,2.8-24.5,3.5-33.4,1c0-0.4,0-0.7,0-1c13.3-14.6,33.7-20.4,40.2-42.2c4.5-15-12.1-62-17.7-69.6c-5.2-7.3-16-9.5-21.6-17.7
	c-8.5-0.5-11.2-0.3-17.7-1c-3,5.4-10.6,9.5-15.7,12.8c2.3,4.6,4.6,9.2,6.8,13.7c-5.8,10.3-19,58.7-8.8,70.6
	c4.8,5.7,16.1,2.9,21.6,7.9c2.2,2,2.3,4.9,4.9,6.8c0.9,4.2,2,8.5,3,12.8c-16.5,0.8-40.1-9.7-54-17.6c-7.3-21.8-5-54.4-14.7-74.5
	c-12.8-1.8-28.3-6-40.2-3.9c-31.9,33.7-33.1,85.5-70.6,119.7c-10-1.7-17.5-1.6-26.5-3.9c0-1.3,0-2.6,0-3.9
	c13.1-10.7,30.3-7.8,34.3-28.5c-0.3-0.3-0.7-0.7-1-1c-9.6,0.9-18.9,2.7-21.6-5.9c-2-1.8-0.7,0-2-3c0.7,0,1.3,0,2,0
	c9.3-10.1,24.8-13.5,32.3-25.5c20.4-32.4-3.7-62.1-14.7-84.3c-0.4-6.2-0.7-12.4-1-18.7c-1.3,0-2.6,0-3.9,0
	c-3.9,1.3-7.9,2.6-11.8,3.9c-9.9,30.1-19.6,60.1-29.4,90.3c3,5.9,5.9,11.8,8.8,17.6c-0.6,0-1.3,0-1.9,0c-4.3,1-8.5,2-12.8,3
	c-4.7,27.4-14.5,52.3-40.2,55.9c-8,1.1-16.6,3.5-22.6-3c0.7-2.3,1.3-4.6,2-6.9c16.4-11,46-22.2,38.3-52.9
	c-21-2.4-41.7-6.9-43.2-29.4c10.6-19.3,25.9-40,30.4-64.8c-21.5-15.7-30.1-23.4-44.1-47.1c-16.4-1-17.3-14.5-36.3-11.8
	c-28.9,4.1-91,37.9-105,0c-2.9-7.9-6-14.3-3-21.6c8.9-2.4,16.1-7,22.6-11.7c-1-7.1-5.7-12.4-2.9-19.6c8.6-19.3,63-37.1,65.7-49
	C434.6,658.4,387.7,596.2,384.3,575z M395.1,575c1,0.7,1.9,1.3,3,2C397,576.3,396.1,575.6,395.1,575z M398.1,576.9
	c1,0.6,1.9,1.3,2.9,2C400,578.2,399,577.6,398.1,576.9z M405.9,581.9c1.9,1.3,0.6,0.1,2,1.9C407.2,583.2,406.6,582.5,405.9,581.9z
	 M408.8,584.8c8,2.2,18,10.6,22.6,16.7C423.9,595.9,416.4,590.4,408.8,584.8z M80.2,587.7c0.3,1,0.6,2,1,3c-0.4,0-0.7,0-1,0
	C80.2,589.7,80.2,588.7,80.2,587.7z M81.2,590.7c0.3,1,0.6,2,1,2.9c-0.4,0-0.7,0-1,0C81.2,592.6,81.2,591.7,81.2,590.7z M82.2,593.6
	c0.3,0.7,0.6,1.3,1,2C82.8,594.9,82.5,594.2,82.2,593.6z M83.2,595.6c3.6,4,6.1,11,6.8,17.6c-0.3,0-0.6,0-1,0
	C87.1,607.3,85.1,601.5,83.2,595.6z M432.4,602.4c4.3,1.6,7.7,3.9,9.8,7.8C438.9,607.7,435.6,605,432.4,602.4z M442.2,610.3
	c1.3,1,2.6,2,3.9,3C444.8,612.2,443.5,611.3,442.2,610.3z M90,613.2c0.3,0.7,0.6,1.3,1,2C90.6,614.5,90.3,613.9,90,613.2z
	 M447.1,614.2c7.2,6.2,14.4,12.4,21.6,18.6C461.5,626.6,454.3,620.4,447.1,614.2z M91,615.2c1,2.3,2,4.6,3,6.8c-0.4,0-0.7,0-1,0
	c0-0.6,0-1.3,0-1.9C92.3,618.5,91.6,616.8,91,615.2z M469.7,633.8c1,0.7,2,1.3,3,2C471.6,635.1,470.6,634.5,469.7,633.8z
	 M474.5,637.7c0.7,0,1.3,0,2,0C475.9,637.7,475.2,637.7,474.5,637.7z M478.5,640.7c1.3,1,2.6,2,3.9,2.9
	C481.1,642.7,479.8,641.7,478.5,640.7z M880.7,660.3c-6.3,3.8-9.3,7.2-12.8,13.7c0.7,1,1.3,2,2,3c0.4,0,0.7,0,1,0
	c7.5-4.6,15-9.2,22.6-13.7c-1-0.3-2-0.7-3-1C887.2,661.6,883.9,661,880.7,660.3z M536.4,680.9c-1.4,1.3-1.8,1.2-3,3
	c-2.1,4.6,0,7.4,3,9.8c1.6-0.4,3.3-0.7,4.9-1C542.4,685.5,542.8,683.2,536.4,680.9z M818.9,694.7c-7.3,4-16.5,5.4-20.6,12.7
	c9.8-3.9,19.6-7.8,29.4-11.8c0-0.3,0-0.6,0-0.9C824.8,694.7,821.8,694.7,818.9,694.7z M579.5,863.4c-10.8,15.7-22.1,30.3-33.3,45.1
	c0,0.7,0,1.3,0,2c6.2,4.2,11.7,8,21.6,8.8C573.2,913.9,586.5,866.8,579.5,863.4z"/>
</svg>
