<?xml version="1.0" encoding="utf-8"?>
<!-- Generator: Adobe Illustrator 18.1.1, SVG Export Plug-In . SVG Version: 6.00 Build 0)  -->
<!DOCTYPE svg PUBLIC "-//W3C//DTD SVG 1.1//EN" "http://www.w3.org/Graphics/SVG/1.1/DTD/svg11.dtd">
<svg version="1.1" id="Layer_1" xmlns="http://www.w3.org/2000/svg" xmlns:xlink="http://www.w3.org/1999/xlink" x="0px" y="0px"
	 viewBox="0 0 1000 1000" enable-background="new 0 0 1000 1000" xml:space="preserve">
<g>
	<path fill="#FFFFFF" d="M99.4,851.8c0-88.4,0-176.8,0-265.2c0-4.6,0-9.1,0-13.7c-1.1-0.2-2.2-0.4-3.3-0.6
		c-11,21.1-22,42.3-33.1,63.4c-1.9,3.7-3.9,7.4-6.4,10.6c-3.5,4.5-8.3,6.8-13.7,3.7c-5.8-3.4-4.8-8.9-2.3-13.7
		c8.7-16.6,17.2-33.2,26.6-49.4c35.2-60.6,67.2-122.9,98.9-185.3c9.6-18.9,24.7-27.1,40.4-36.1c72.5-41.7,145.8-82,217.9-124.3
		c20-11.8,35.2-12.1,55.5,0c64.6,38.6,130.8,74.8,196,112.4c11.4,6.6,14.1,4,14-8.2c-0.3-53-0.2-106.1-0.1-159.1
		c0-20.1,1.4-21.5,21.1-21.5c74.9-0.1,149.7,0.3,224.6-0.3c15.1-0.1,19.6,5.1,19.5,19.9c-0.3,266.2-0.3,532.4,0,798.6
		c0,14.4-4.8,18.8-19,18.8c-151.8-0.3-303.6-0.1-455.5-0.1c-119.5,0-239-0.1-358.6-0.2c-21,0-21.4-0.1-22.5-21.3L99.4,851.8z
		 M256.6,829.5c0,45.2,0,90.4,0,135.6c0,23.5,0.9,23.7,24.9,22.2c48.8-3,97.6-2.8,146.3-0.1c14.2,0.8,18.2-3.8,18.1-17.3
		c-0.3-93-0.3-186,0.1-279c0.1-12.6-3.7-17.6-16.8-17.5c-51.9,0.5-103.9,0.5-155.8,0c-13-0.1-17.1,4.6-17,17.3
		C256.9,737,256.6,783.2,256.6,829.5z M461.6,829.2c0,0,0.1,0,0.1,0c0,47.3,0.1,94.6-0.1,141.9c0,10,1.1,17.2,14.2,16.4
		c51.4-3.1,102.8-3.1,154.1,0.2c11.2,0.7,15.9-3,15.9-14.8c-0.3-94.6-0.3-189.1,0-283.7c0-11.4-4.2-15.7-15.6-15.6
		c-52,0.3-103.9,0.3-155.9,0c-10.5-0.1-13,3.9-12.9,13.9C461.9,734.6,461.6,781.9,461.6,829.2z"/>
	<path fill="#FFFFFF" d="M821.3,161.7c-37.4,0-74.9-0.4-112.3,0.2c-13.9,0.2-18.7-4.9-19.8-18.9c-5.1-67,37.1-124.8,99.4-137.8
		C858.3-9.3,916.2,13.7,947.8,85c9.5,21.4,7.3,43.8,6.5,66.1c-0.4,11.1-9.7,10.6-17.5,10.6C898.3,161.7,859.8,161.7,821.3,161.7z"/>
</g>
</svg>
