<?xml version="1.0" encoding="utf-8"?>
<!-- Generator: Adobe Illustrator 18.1.1, SVG Export Plug-In . SVG Version: 6.00 Build 0)  -->
<!DOCTYPE svg PUBLIC "-//W3C//DTD SVG 1.1//EN" "http://www.w3.org/Graphics/SVG/1.1/DTD/svg11.dtd">
<svg version="1.1" id="Layer_1" xmlns="http://www.w3.org/2000/svg" xmlns:xlink="http://www.w3.org/1999/xlink" x="0px" y="0px"
	 viewBox="0 0 1000 1000" enable-background="new 0 0 1000 1000" xml:space="preserve">
<g>
	<path fill="#FFFFFF" d="M781.9,80.9c12.7,9.2,23.2,14.4,34.5,17.6c34.3,9.7,64.9,27.8,97.1,42.1c9.6,4.3,18.7,11.3,25.7,19.2
		c15,16.8,29.4,33.8,49.2,45.5c11.2,6.6,17,17.1,8.2,28.4c-7.3,9.4-22.1,13-22.5,13.2c-20.7,11.4-46.2-10.1-60-21
		c-42.2-33.3-93.9-37.7-143.3-49.2c-39.8,17-86.4,12.8-123.1,39c-23.3,16.6-22,24.9,3.1,38.1c35.8,18.9,70.8,39.2,104.5,61.7
		c14.8,9.9,23,22.4,23.2,40.8c0.1,17.1,4.1,33.8,8.2,50.5c8.7,35.3,10.3,69.9-9.9,102.9c-5.8,9.5-7.4,21.5-11.2,32.2
		c-2.3,6.5-4.3,13.5-13.2,14.3c-9,0.7-15.8-2-20.9-10c-12.3-19-16.9-39.6-13.6-61.7c2.2-15-0.9-27.6-8.3-41.2
		c-18.2-33.3-23.4-40.2-57.3-59c-3.9-2.2-8.1-4-11.3-6.9c-40.2-35.8-91.8-33.8-140.1-41c-37.1-5.5-85.2,36.8-88,73.9
		c-1.5,19.6,8.1,34.8,20.9,49.1c36.1,40.6,73.7,80.1,100.4,128.1c6.8,12.3,12.7,24.8,16.2,38.4c2,8,3.7,16.2,2,24.4
		c-2.6,12.3-8.6,22.9-21.4,26.8c-11.8,3.6-19-4.5-24.9-13.2c-19.8-29.2-48.4-47.6-78.6-63.8c-19-10.2-33.4-25.9-46-41.9
		c-35.1-44.7-81-76.4-126.5-108.1c-51.7-36-98.9-76.2-142.2-122c-26.9-28.4-48.4-47.2-80.5-67.3C-22.7,174.2,23.6-3.1,32.4,0
		c12,4.2,16.4,3.8,29.2,5.8c18.2,3,36.6,7.2,50.6,20c28.9,26.4,64.3,37.6,101.4,44.1c61.7,10.7,123.2,22.7,185.7,28.1
		c24.2,2.1,48.9-0.8,71.2-9.4c53.6-20.5,109.2-36.7,158-68.4c8.1-5.2,16.8-9.3,26.5-9.4c47.3-0.4,94.8-5.4,141.6,5.7
		c27.9,6.6,56.3,9.5,84.9,11.3c10.6,0.7,20.6,2,22.8,15.2c2.1,12.8-2.9,22.5-13.7,28.8c-14.4,8.3-30.2,7.7-46.2,6.9
		C824.8,77.7,804.8,73.4,781.9,80.9z"/>
</g>
<path fill="#FFFFFF" d="M549.6,1005c0,0,181.2-261.3,68.6-429.7s-127.9-205.3,6.4-64.6S637,1005,637,1005H549.6z"/>
</svg>
