<?xml version="1.0" encoding="utf-8"?>
<!-- Generator: Adobe Illustrator 18.1.1, SVG Export Plug-In . SVG Version: 6.00 Build 0)  -->
<!DOCTYPE svg PUBLIC "-//W3C//DTD SVG 1.1//EN" "http://www.w3.org/Graphics/SVG/1.1/DTD/svg11.dtd">
<svg version="1.1" id="Layer_1" xmlns="http://www.w3.org/2000/svg" xmlns:xlink="http://www.w3.org/1999/xlink" x="0px" y="0px"
	 viewBox="0 0 1000 1000" style="enable-background:new 0 0 1000 1000;" xml:space="preserve">
<path d="M684,276c54.6,19.7,78,30.3,127.6,60.4c44.4-17.1,88.9-34.3,133.3-51.4c18.3,9.7,36.7,19.4,55.1,29.2
	c-41.1,38.3-82.3,76.6-123.4,114.9c-1.2,55.9-2.4,111.8-3.6,167.6c-22.1-11.5-44.3-22.9-66.5-34.4c-12.8-41-25.7-82-38.5-123
	c-68-11.3-79.7-20.9-138.5-58.7c-14.5,110.6-29,221.2-43.5,331.7c-30.2-16.6-60.5-33.3-90.7-49.9c-35.5-156-45.5-203.4-35.6-361
	C227.3,196.2,155,123.4,171.9,93c21.3-38.4,176-6.9,347.2,106.6C617.2,95.1,675,56.1,803,0c32.3,12.3,64.5,24.6,96.8,36.8
	C827.4,116.2,755.2,195.6,684,276L684,276z"/>
<path d="M381.8,727.3H300V700c0-15.1-12.2-27.3-27.3-27.3H163.6c-15,0-27.2,12.2-27.2,27.3v27.3H54.5C24.4,727.3,0,751.7,0,781.8
	v163.6c0,30.2,24.4,54.6,54.5,54.6h327.3c30.1,0,54.6-24.4,54.6-54.6V781.8C436.4,751.7,411.9,727.3,381.8,727.3z M218.2,945.4
	c-45.3,0-81.8-36.6-81.8-81.8s36.5-81.8,81.8-81.8c45.2,0,81.8,36.6,81.8,81.8C300,908.8,263.4,945.4,218.2,945.4z"/>
</svg>
