<?xml version="1.0" encoding="utf-8"?>
<!-- Generator: Adobe Illustrator 18.1.1, SVG Export Plug-In . SVG Version: 6.00 Build 0)  -->
<!DOCTYPE svg PUBLIC "-//W3C//DTD SVG 1.1//EN" "http://www.w3.org/Graphics/SVG/1.1/DTD/svg11.dtd">
<svg version="1.1" id="Layer_1" xmlns="http://www.w3.org/2000/svg" xmlns:xlink="http://www.w3.org/1999/xlink" x="0px" y="0px"
	 viewBox="0 0 1000 1000" enable-background="new 0 0 1000 1000" xml:space="preserve">
<path fill-rule="evenodd" clip-rule="evenodd" fill="#FFFFFF" d="M684,276c54.6,19.7,78,30.3,127.6,60.4
	c44.4-17.1,88.9-34.3,133.3-51.4c18.3,9.7,36.7,19.4,55.1,29.2c-41.1,38.3-82.3,76.6-123.4,114.9c-1.2,55.9-2.4,111.8-3.6,167.6
	c-22.1-11.5-44.3-22.9-66.5-34.4c-12.8-41-25.7-82-38.5-123c-68-11.3-79.7-20.9-138.5-58.7c-14.5,110.6-29,221.2-43.5,331.7
	c-30.2-16.6-60.5-33.3-90.7-49.9c-35.5-156-45.5-203.4-35.6-361C227.3,196.2,155,123.4,171.9,93c21.3-38.4,176-6.9,347.2,106.6
	C617.2,95.1,675,56.1,803,0c32.3,12.3,64.5,24.6,96.8,36.8C827.4,116.2,755.2,195.6,684,276L684,276z"/>
<g>
	<path fill="#FFFFFF" d="M381.8,1000H54.5C24.4,1000,0,975.6,0,945.4V781.8c0-30.1,24.4-54.5,54.5-54.5h327.3
		c30.1,0,54.6,24.4,54.6,54.5v163.6C436.4,975.6,411.9,1000,381.8,1000L381.8,1000z M218.2,781.8c-45.3,0-81.8,36.6-81.8,81.8
		c0,45.2,36.5,81.8,81.8,81.8c45.2,0,81.8-36.6,81.8-81.8C300,818.4,263.4,781.8,218.2,781.8L218.2,781.8z M136.4,754.5V700
		c0-15.1,12.2-27.3,27.2-27.3h109.1c15.1,0,27.3,12.2,27.3,27.3v54.5H136.4L136.4,754.5z"/>
</g>
</svg>
