<?xml version="1.0" encoding="utf-8"?>
<!-- Generator: Adobe Illustrator 18.1.1, SVG Export Plug-In . SVG Version: 6.00 Build 0)  -->
<!DOCTYPE svg PUBLIC "-//W3C//DTD SVG 1.1//EN" "http://www.w3.org/Graphics/SVG/1.1/DTD/svg11.dtd">
<svg version="1.1" id="Layer_1" xmlns="http://www.w3.org/2000/svg" xmlns:xlink="http://www.w3.org/1999/xlink" x="0px" y="0px"
	 viewBox="0 0 1000 1000" enable-background="new 0 0 1000 1000" xml:space="preserve">
<g>
	<path fill-rule="evenodd" clip-rule="evenodd" fill="#FFFFFF" d="M990.1,624c-45.6,0-175.9,0-175.9,0s8.2,43.1,12.3,65
		c1.5,6.5-1.6,11.7-10,11.7c-12.8,0-32.4,0-39,0c0,0-0.9,0-2.1,0c-6.9,0-26.6,0-39.5,0c-8.2,0-11.4-5.2-9.9-11.7
		c4-21.9,12.3-65,12.3-65s-131.2,0-177.3,0c-9-0.2-12.1-6-7.8-14.1c23.8-44,94.6-173.8,94.6-173.8s-24,0-39.5,0
		c-7.5-0.2-9.2-5.9-6.3-11.1c21.2-40.6,94.9-181.4,94.9-181.4s-27.3,0-42.1,0c-5.7,0-7.8-4-4.7-8.6C671.3,195.8,760,32.3,775.5,4.6
		V0c-0.2,0,0.2,0.8,0.7,2.1c0.9-1.3,1.4-2.1,1.4-2.1v4.6C792.8,32.5,880.7,195.8,901.9,235c3.1,4.6,1,8.6-4.5,8.6
		c-14.5,0-41.8,0-41.8,0s73,140.8,94.1,181.4c2.8,5.2,1.2,10.8-6.5,11.1c-15.3,0-39.2,0-39.2,0s70.3,129.8,94.1,173.8
		C1002.5,617.9,998.9,623.7,990.1,624L990.1,624z"/>
</g>
<path fill-rule="evenodd" clip-rule="evenodd" fill="#FFFFFF" d="M659,1000c-93.6,0-308.9,0-308.9,0s-216.7,0-309.6,0
	c-29.1-0.4-42.3-15.1-40.2-44.2c6.5-46,32.2-115.6,123.3-145.3c97.1-37.4,104.2-41.4,104.2-41.4s22.4-37.4,32.9-40
	c10.6-2.4,1.7-17.2,0-21.2c-1.8-4.4-15,0-15-54.1c0-17.9,2.3-19.2-6.6-19.2c-8.7,0-29-12.3-29-55.5c0-43.5,0-45.2,7.6-46.4
	c1.4-16.7-7.9-43.5-7.9-104c0-60.6,48.5-117.4,140.3-117.4c26.8,0,49.4-12.7,74.8-14.6c3.1,7.7,7,21,12.3,24.4
	c19.2,12.6,44.8,44.5,54.1,107.6c0,60.6-9.3,87.4-8.1,104c7.4,1.2,7.4,2.9,7.4,46.4c0,43.3-20.4,55.5-29,55.5
	c-8.8,0-6.5,1.3-6.5,19.2c0,54.1-13.2,49.7-14.9,54.1c-1.8,3.9-10.5,18.8,0,21.2c10.2,2.5,33.1,40,33.1,40s6.8,4,103.5,41.4
	C668.9,840.5,694,910.9,700.1,957C702,986.6,692.8,1000,659,1000L659,1000z"/>
</svg>
