<?xml version="1.0" encoding="utf-8"?>
<!-- Generator: Adobe Illustrator 18.1.1, SVG Export Plug-In . SVG Version: 6.00 Build 0)  -->
<!DOCTYPE svg PUBLIC "-//W3C//DTD SVG 1.1//EN" "http://www.w3.org/Graphics/SVG/1.1/DTD/svg11.dtd">
<svg version="1.1" id="Layer_1" xmlns="http://www.w3.org/2000/svg" xmlns:xlink="http://www.w3.org/1999/xlink" x="0px" y="0px"
	 viewBox="0 0 1000 1000" style="enable-background:new 0 0 1000 1000;" xml:space="preserve">
<style type="text/css">
	.st0{fill-rule:evenodd;clip-rule:evenodd;}
</style>
<polygon points="964.3,-0.9 395.5,600.5 654.5,531.8 379.2,1000 1000,331.3 742.5,399.4 "/>
<g>
	<path class="st0" d="M398.3,55.4l-64.1,64.1l42.7,42.7L441,98.1L398.3,55.4L398.3,55.4z M99.1,55.4L56.4,98.1l64,64.1l42.7-42.7
		L99.1,55.4L99.1,55.4z M120.5,333.2l-64,64.2L99.1,440l64.1-64.1L120.5,333.2L120.5,333.2z M376.9,333.2L334.2,376l64.1,64.1
		l42.7-42.7L376.9,333.2L376.9,333.2z M217.6-0.9v93.3h62.2V-0.9H217.6L217.6-0.9z M0,216.7v62.2h93.3v-62.2H0L0,216.7z
		 M217.6,403.2v93.2h62.2v-93.2H217.6L217.6,403.2z M404.1,216.7v62.2h93.2v-62.2H404.1L404.1,216.7z M186.5,247.7
		c0-34.4,27.8-62.2,62.2-62.2c34.3,0,62.2,27.8,62.2,62.2s-27.9,62.2-62.2,62.2C214.4,309.9,186.5,282.1,186.5,247.7L186.5,247.7z
		 M124.4,247.7c0,68.7,55.7,124.3,124.3,124.3c68.6,0,124.2-55.7,124.2-124.3c0-68.7-55.7-124.3-124.2-124.3
		C180.1,123.4,124.4,179.1,124.4,247.7L124.4,247.7z"/>
</g>
</svg>
