<?xml version="1.0" encoding="utf-8"?>
<!-- Generator: Adobe Illustrator 18.1.1, SVG Export Plug-In . SVG Version: 6.00 Build 0)  -->
<!DOCTYPE svg PUBLIC "-//W3C//DTD SVG 1.1//EN" "http://www.w3.org/Graphics/SVG/1.1/DTD/svg11.dtd">
<svg version="1.1" id="Layer_1" xmlns="http://www.w3.org/2000/svg" xmlns:xlink="http://www.w3.org/1999/xlink" x="0px" y="0px"
	 viewBox="0 0 1000 1000" enable-background="new 0 0 1000 1000" xml:space="preserve">
<path fill="#FFFFFF" d="M755.8,877.9c-67.5,0-122.1-54.7-122.1-122.1s54.7-122.1,122.1-122.1s122,54.6,122,122.1
	C877.8,823.2,823.2,877.9,755.8,877.9L755.8,877.9z M755.8,694.7c-33.7,0-61.1,27.3-61.1,61.1c0,33.7,27.4,61.1,61.1,61.1
	c33.7,0,61-27.3,61-61.1S789.5,694.7,755.8,694.7L755.8,694.7z M725.3,603.2l30.6-91.6l30.5,91.6H725.3L725.3,603.2z M755.8,1000
	l-30.6-91.5h61.1L755.8,1000L755.8,1000z M908.4,786.3v-61.1l91.6,30.5L908.4,786.3L908.4,786.3z M511.5,755.8l91.6-30.5v61.1
	L511.5,755.8L511.5,755.8z M893.1,648l-30.6-30.5l78.3-47.7L893.1,648L893.1,648z M569.7,940.9l47.7-78.2l30.5,30.5L569.7,940.9
	L569.7,940.9z M861.6,893.2l30.6-30.5l47.7,78.2L861.6,893.2L861.6,893.2z M618.4,648l-47.7-78.2l78.3,47.7L618.4,648L618.4,648z"/>
<polygon fill="#FFFFFF" points="585.1,-0.9 16.3,600.5 275.3,531.8 0,1000 620.8,331.3 363.3,399.4 "/>
</svg>
