<?xml version="1.0" encoding="utf-8"?>
<!-- Generator: Adobe Illustrator 18.1.1, SVG Export Plug-In . SVG Version: 6.00 Build 0)  -->
<!DOCTYPE svg PUBLIC "-//W3C//DTD SVG 1.1//EN" "http://www.w3.org/Graphics/SVG/1.1/DTD/svg11.dtd">
<svg version="1.1" id="Layer_1" xmlns="http://www.w3.org/2000/svg" xmlns:xlink="http://www.w3.org/1999/xlink" x="0px" y="0px"
	 viewBox="0 0 1000 1000" enable-background="new 0 0 1000 1000" xml:space="preserve">
<polygon fill-rule="evenodd" clip-rule="evenodd" fill="#FFFFFF" points="585.1,-0.9 16.3,600.5 275.3,531.8 0,1000 620.8,331.3 
	363.3,399.4 585.1,-0.9 "/>
<g>
	<path fill-rule="evenodd" clip-rule="evenodd" fill="#FFFFFF" d="M991.6,935.1c-38.6,0-148.7,0-148.7,0s7,36.5,10.4,55
		c1.3,5.5-1.4,9.9-8.4,9.9c-10.9,0-27.4,0-33,0c0,0-0.7,0-1.8,0c-5.8,0-22.5,0-33.4,0c-6.9,0-9.6-4.4-8.4-9.9
		c3.4-18.5,10.4-55,10.4-55s-111,0-150,0c-7.6-0.2-10.2-5.1-6.6-11.9c20.1-37.2,80-146.9,80-146.9s-20.3,0-33.4,0
		c-6.4-0.2-7.8-5-5.4-9.4c17.9-34.4,80.2-153.4,80.2-153.4s-23.1,0-35.6,0c-4.8,0-6.6-3.4-4-7.3c18.1-33.1,93.1-171.4,106.1-194.8
		v-3.9c-0.2,0,0.2,0.7,0.6,1.8c0.8-1.1,1.2-1.8,1.2-1.8v3.9c12.9,23.6,87.3,161.7,105.2,194.8c2.6,3.9,0.8,7.3-3.8,7.3
		c-12.3,0-35.3,0-35.3,0s61.7,119,79.6,153.4c2.3,4.4,1,9.2-5.5,9.4c-12.9,0-33.1,0-33.1,0s59.5,109.7,79.6,146.9
		C1002.1,930,999.1,934.9,991.6,935.1L991.6,935.1z"/>
</g>
</svg>
