<?xml version="1.0" encoding="utf-8"?>
<!-- Generator: Adobe Illustrator 18.1.1, SVG Export Plug-In . SVG Version: 6.00 Build 0)  -->
<!DOCTYPE svg PUBLIC "-//W3C//DTD SVG 1.1//EN" "http://www.w3.org/Graphics/SVG/1.1/DTD/svg11.dtd">
<svg version="1.1" id="Layer_1" xmlns="http://www.w3.org/2000/svg" xmlns:xlink="http://www.w3.org/1999/xlink" x="0px" y="0px"
	 viewBox="0 0 1000 1000" style="enable-background:new 0 0 1000 1000;" xml:space="preserve">
<polygon points="964.3,-0.9 395.5,600.5 654.5,531.8 379.2,1000 1000,331.3 742.5,399.4 "/>
<g>
	<path d="M371.1,527.6c-38.6,0-148.7,0-148.7,0s7,36.5,10.4,55c1.3,5.5-1.4,9.9-8.4,9.9c-10.9,0-27.4,0-33,0c0,0-0.7,0-1.8,0
		c-5.8,0-22.5,0-33.4,0c-6.9,0-9.6-4.4-8.4-9.9c3.4-18.5,10.4-55,10.4-55s-111,0-150,0c-7.6-0.2-10.2-5.1-6.6-11.9
		c20.1-37.2,80-146.9,80-146.9s-20.3,0-33.4,0c-6.4-0.2-7.8-5-5.4-9.4C60.7,325,123,206,123,206s-23.1,0-35.6,0
		c-4.8,0-6.6-3.4-4-7.3c18.1-33.1,93.1-171.4,106.1-194.8V0c-0.2,0,0.2,0.7,0.6,1.8c0.8-1.1,1.2-1.8,1.2-1.8v3.9
		c12.9,23.6,87.3,161.7,105.2,194.8c2.6,3.9,0.8,7.3-3.8,7.3c-12.3,0-35.3,0-35.3,0s61.7,119,79.6,153.4c2.3,4.4,1,9.2-5.5,9.4
		c-12.9,0-33.1,0-33.1,0s59.5,109.7,79.6,146.9C381.6,522.5,378.6,527.4,371.1,527.6L371.1,527.6z"/>
</g>
</svg>
