<?xml version="1.0" encoding="utf-8"?>
<!-- Generator: Adobe Illustrator 18.1.1, SVG Export Plug-In . SVG Version: 6.00 Build 0)  -->
<!DOCTYPE svg PUBLIC "-//W3C//DTD SVG 1.1//EN" "http://www.w3.org/Graphics/SVG/1.1/DTD/svg11.dtd">
<svg version="1.1" id="Layer_1" xmlns="http://www.w3.org/2000/svg" xmlns:xlink="http://www.w3.org/1999/xlink" x="0px" y="0px"
	 viewBox="0 0 1000 1000" enable-background="new 0 0 1000 1000" xml:space="preserve">
<g>
	<path fill-rule="evenodd" clip-rule="evenodd" fill="#FFFFFF" d="M633.7,491.1c-22,63.3-68.7,102.1-68.7,102.1l-1,8.6
		c-40.3,48.7-64.7,111-64.7,179.3c0,85.7,38.5,162.9,99.1,214.4L0.3,998c0,0-4.5-124.5,22.7-150.6c27.3-26.3,55.1-73.1,200-94.5
		c144.8-21.4,148.4-97.6,153-95.2c-0.7-29-3.6-69.5-3.6-69.5s-56.5-31.9-78.8-95.2c-46.6-18.7-40.4-30.6-44.9-54.9
		c0,0,5.3-98.2,36.8-96.1c0,0,25.4,0,20.3-22.5c-1.5-37.5-1-45.3,1.5-70.5c2.6-24.9,13.3-92.4,65.9-102.5c52.5-10,11.8-4.8,29.4-7.5
		c17.5-2.5-11-12.5,21.5-12.5l51.9-10.7c32.6,0,53.6,45.2,71,47.8c17.4,2.5,6-7.7,41.8-0.9c52.5,10,37.4,81.5,40,106.4
		c2.5,25.2,4.1,32.9-0.8,55.4c-5,22.6,38,20.1,38,20.1c37.5,0,21.8,96.2,21.8,96.2C682.1,466,668.9,469.1,633.7,491.1L633.7,491.1z"
		/>
</g>
<g>
	<path fill-rule="evenodd" clip-rule="evenodd" fill="#FFFFFF" d="M981.1,871.6c-45.7,105.3-168.2,153.8-273.5,108.3
		c-105.5-45.7-153.9-168.3-108.2-273.8c45.4-105.3,167.9-153.8,273.4-108.2C978.5,643.7,1026.9,766.1,981.1,871.6L981.1,871.6z
		 M880.4,740.7h-24.1l-16.7-17.4v-23.8l29.9-28.2l-33-0.4l-36.2,33.9v42.2L688.8,858.8c0,0-18.2,17.6-2.1,33.8
		c16.3,16.3,35.5,0.2,35.5,0.2l111.6-111.3h38l38.9-38.2l0.4-30.4L880.4,740.7L880.4,740.7z M705.5,891c-8.3,0-15.4-6.8-15.4-15.4
		c0-8.4,7.1-15.2,15.4-15.2c8.6,0,15.3,6.8,15.3,15.2C720.8,884.2,714.1,891,705.5,891L705.5,891z"/>
</g>
</svg>
