<?xml version="1.0" encoding="utf-8"?>
<!-- Generator: Adobe Illustrator 18.1.1, SVG Export Plug-In . SVG Version: 6.00 Build 0)  -->
<!DOCTYPE svg PUBLIC "-//W3C//DTD SVG 1.1//EN" "http://www.w3.org/Graphics/SVG/1.1/DTD/svg11.dtd">
<svg version="1.1" id="Layer_1" xmlns="http://www.w3.org/2000/svg" xmlns:xlink="http://www.w3.org/1999/xlink" x="0px" y="0px"
	 viewBox="0 0 1000 1000" style="enable-background:new 0 0 1000 1000;" xml:space="preserve">
<g>
	<path d="M349.5,541.2c0,0-57.6-252.6,193.5-203c0,0,121.3-19.3,130.1,82c8.7,101.3-9.5,141.4-9.5,141.4s36.4-8.7,36.4,25.5
		c0,34.3-27.7,88.2-62,96.2c0,0-10.4,33-37.9,63.4c-13.1,14.4-13.2,54.7-8,59.8c1.6,1.6,27.7,10.9,64,16.7
		c31.8,5.2,71.5,6.5,109.3,13.1c88.3,15.5,101.7,47,112.3,63.4c26.3,40.8,11,95.5,11,95.5h-747l2.2-94.1c0,0,16-75.8,266-91.8
		c0,0,8.7-2.9,4.4-59.8c0,0-30.6-56.1-30.6-73.6c0-4.9-13.6-8.4-24.3-19.3c-27.4-28.1-53.2-87.5-20.1-105.4l6.4-1.2l5.3,1.2
		L349.5,541.2z"/>
	<path d="M674.9,394.9c0,0,38-51.4,112.8,0C862.6,446.4,847,527,847,527s24.7,1.3-5.8,64.2c-8.9,18.2-21.4,20.4-21.4,20.4
		s-17,42.3-27.7,56.8c-10.7,14.6-1.9,41.3,1,44.2c1.2,1.2,24.1,17.7,64.1,35c53.7,23.3,133.1,36.4,142.4,86l1,113.2H896.1v-62.2
		c0,0,11.7-47.6-141.9-87c-148.4-38-137.5-24.3-137.5-24.3s-9-8.5,12.7-30.1c7.8-7.8,28.4-43.5,30.2-45.2c0,0,39.3-21.3,50-95.7
		c7.8-54-19.9-51.1-19.9-51.1S709.9,429.8,674.9,394.9z"/>
	<path d="M350.4,390c0,0-103-45.7-159.3,48.6c-56.4,94.3-12.6,153.6-105,259.5c0,0,26.2,53.4,100.1,36c73.8-17.6,34,45.6,17.4,38.9
		c-16.5-6.8-168.1,8.7-186.5,71.9c-18.5,63.2-10.7,104-10.7,104h126.3c0,0-11.7-100.9,71.9-136c85.5-36,189.5-40.8,189.5-40.8
		s4.7-33.4-25.3-63.4C316.5,656.2,275,587.3,329,537.8C329,537.8,313.5,455.2,350.4,390z"/>
</g>
</svg>
