<?xml version="1.0" encoding="utf-8"?><!DOCTYPE svg PUBLIC "-//W3C//DTD SVG 1.0//EN" "http://www.w3.org/TR/2001/REC-SVG-20010904/DTD/svg10.dtd">
<svg version="1.0" id="Layer_1" xmlns="http://www.w3.org/2000/svg" xmlns:xlink="http://www.w3.org/1999/xlink" x="0px" y="0px"
	 viewBox="-487 489 24 24" style="enable-background:new -487 489 24 24;" xml:space="preserve">
<path d="M-464.5,499.5c0.8,0,1.5,0.6,1.5,1.4v7c0,0.4-0.2,0.7-0.4,1l-4.9,4.6l-0.8-0.7c-0.2-0.2-0.3-0.4-0.3-0.7l0-0.2l0.7-3.2h-4.7
	c-0.8,0-1.5-0.6-1.5-1.4v-0.1v-1.3c0-0.2,0-0.3,0.1-0.5l2.3-4.9c0.2-0.5,0.8-0.8,1.4-0.8H-464.5 M-464.5,500.9h-6.8l-2.2,4.9v1.4
	h6.6l-0.8,3.7l3.3-3V500.9z"/>
<path d="M-485.5,503.4c-0.8,0-1.5-0.6-1.5-1.4v-7c0-0.4,0.2-0.7,0.4-1l4.9-4.6l0.8,0.7c0.2,0.2,0.3,0.4,0.3,0.7l0,0.2l-0.7,3.2h4.7
	c0.8,0,1.5,0.6,1.5,1.4v0.1v1.3c0,0.2,0,0.3-0.1,0.5l-2.3,4.9c-0.2,0.5-0.8,0.8-1.4,0.8H-485.5 M-485.5,502h6.8l2.2-4.9v-1.4h-6.6
	l0.8-3.7l-3.3,3V502z"/>
</svg>
